<?xml version="1.0" encoding="utf-8"?>
<!-- Generator: Adobe Illustrator 22.1.0, SVG Export Plug-In . SVG Version: 6.00 Build 0)  -->
<svg version="1.1" id="Layer_1" xmlns="http://www.w3.org/2000/svg" xmlns:xlink="http://www.w3.org/1999/xlink" x="0px" y="0px"
	 viewBox="0 0 96.9 81.7" style="enable-background:new 0 0 96.9 81.7;" xml:space="preserve">
<style type="text/css">
	.st0{fill:#FFFFFF;}
	.st1{fill:none;stroke:#66CCCC;stroke-width:6;stroke-miterlimit:10;}
	.st2{fill:none;stroke:#F4BF7A;stroke-width:2;stroke-miterlimit:10;}
	.st3{fill:none;stroke:#000000;stroke-width:4;stroke-miterlimit:10;}
	.st4{fill:#CACACA;}
	.st5{fill:#66CCCC;}
	.st6{fill:none;stroke:#0DA31F;stroke-miterlimit:10;}
</style>
<g>
	<path class="st6" d="M-204.3,40.1h-10.2c-2.2,0-4-1.8-4-4c0-2.2,1.8-4,4-4h10.2c2.2,0,4,1.8,4,4C-200.3,38.3-202.1,40.1-204.3,40.1
		 M-194.8,87.6c-1,0-2-0.4-2.8-1.2c-1.6-1.6-1.6-4.1,0-5.7l7.2-7.2c1.6-1.6,4.1-1.6,5.7,0c1.6,1.6,1.6,4.1,0,5.7l-7.2,7.2
		C-192.8,87.2-193.8,87.6-194.8,87.6z M-147.4-17c-2.2,0-4-1.8-4-4l0-10.2c0-2.2,1.8-4,4-4c2.2,0,4,1.8,4,4l0,10.2
		C-143.4-18.8-145.2-17-147.4-17z M-107.1-0.3c-1,0-2-0.4-2.8-1.2c-1.6-1.6-1.6-4.1,0-5.7l7.2-7.3c1.6-1.6,4.1-1.6,5.7,0
		c1.6,1.6,1.6,4.1,0,5.7l-7.2,7.2C-105.1-0.7-106.1-0.3-107.1-0.3z M-175.1,68.7c-1.1,0-2.1-0.4-2.8-1.2
		c-8.3-8.3-12.8-19.3-12.8-31.1c0-24.2,19.7-44,43.9-44c11.7,0,22.7,4.6,31,12.9c0.8,0.8,1.2,1.8,1.2,2.8c0,1.1-0.4,2.1-1.2,2.8
		l-56.4,56.5C-173.1,68.3-174.1,68.7-175.1,68.7z M-164.1,75.8h0.3c2.3,0,4.2,1.9,4.3,4.3v0.3c0,2.3-1.9,4.3-4.3,4.3h-0.3
		c-2.3,0-4.3-1.9-4.3-4.3V80C-168.4,77.7-166.4,75.8-164.1,75.8z M-151.9,63.6h0.3c2.3,0,4.3,1.9,4.3,4.3v0.3c0,2.3-1.9,4.3-4.3,4.3
		h-0.3c-2.3,0-4.3-1.9-4.3-4.3v-0.3C-156.2,65.5-154.3,63.6-151.9,63.6z M-139.8,51.3h0.3c2.3,0,4.3,1.9,4.3,4.3v0.3
		c0,2.3-1.9,4.3-4.3,4.3h-0.3c-2.3,0-4.3-1.9-4.3-4.3v-0.3C-144,53.3-142.1,51.3-139.8,51.3z M-127.6,39.1h0.3
		c2.3,0,4.3,1.9,4.3,4.3v0.3c0,2.3-1.9,4.3-4.2,4.3h-0.3c-2.3,0-4.2-1.9-4.3-4.3v-0.3C-131.8,41.1-129.9,39.1-127.6,39.1z
		 M-115.4,26.9h0.3c2.3,0,4.3,1.9,4.3,4.3v0.3c0,2.3-1.9,4.3-4.3,4.3h-0.3c-2.3,0-4.2-1.9-4.3-4.3v-0.3
		C-119.7,28.9-117.8,26.9-115.4,26.9z M-152.2,87.7h0.3c2.3,0,4.3,1.9,4.3,4.3v0.3c0,2.3-1.9,4.3-4.3,4.3h-0.3
		c-2.3,0-4.3-1.9-4.3-4.3v-0.3C-156.5,89.6-154.5,87.7-152.2,87.7z M-140,75.5h0.3c2.3,0,4.3,1.9,4.3,4.3V80c0,2.3-1.9,4.3-4.2,4.3
		h-0.3c-2.3,0-4.3-1.9-4.3-4.3v-0.3C-144.3,77.4-142.4,75.5-140,75.5z M-127.9,63.3h0.3c2.3,0,4.3,1.9,4.3,4.3v0.3
		c0,2.3-1.9,4.3-4.2,4.3h-0.3c-2.3,0-4.2-1.9-4.3-4.3v-0.3C-132.1,65.2-130.2,63.3-127.9,63.3z M-115.7,51.1h0.3
		c2.3,0,4.3,1.9,4.3,4.3v0.3c0,2.3-1.9,4.3-4.3,4.3h-0.3c-2.3,0-4.3-1.9-4.3-4.3v-0.3C-119.9,53-118,51.1-115.7,51.1z M-103.5,38.9
		h0.3c2.3,0,4.3,1.9,4.3,4.3v0.3c0,2.3-1.9,4.3-4.3,4.3h-0.3c-2.3,0-4.3-1.9-4.3-4.3v-0.3C-107.8,40.8-105.9,38.9-103.5,38.9z
		 M-134.2,93.5h0.3c2.3,0,4.3,1.9,4.3,4.3V98c0,2.3-1.9,4.3-4.2,4.3h-0.3c-2.3,0-4.2-1.9-4.2-4.3v-0.3
		C-138.5,95.4-136.6,93.5-134.2,93.5z M-122,81.3h0.3c2.3,0,4.2,1.9,4.3,4.3v0.3c0,2.3-1.9,4.3-4.3,4.3h-0.3c-2.3,0-4.3-1.9-4.3-4.3
		v-0.3C-126.3,83.2-124.4,81.3-122,81.3z M-109.9,69.1h0.3c2.3,0,4.3,1.9,4.3,4.3v0.3c0,2.3-1.9,4.3-4.3,4.3h-0.3
		c-2.3,0-4.3-1.9-4.3-4.3v-0.3C-114.1,71-112.2,69.1-109.9,69.1z M-97.7,56.9h0.3c2.3,0,4.3,1.9,4.3,4.3v0.3c0,2.3-1.9,4.3-4.2,4.3
		h-0.3c-2.3,0-4.2-1.9-4.3-4.3v-0.3C-101.9,58.8-100,56.9-97.7,56.9z M-110.1,93.2h0.3c2.3,0,4.3,1.9,4.3,4.3v0.3
		c0,2.3-1.9,4.3-4.3,4.3h-0.3c-2.3,0-4.3-1.9-4.3-4.3v-0.3C-114.4,95.1-112.5,93.2-110.1,93.2z M-98,81h0.3c2.3,0,4.3,1.9,4.3,4.3
		v0.3c0,2.3-1.9,4.3-4.2,4.3H-98c-2.3,0-4.3-1.9-4.3-4.3v-0.3C-102.2,82.9-100.3,81-98,81z M-103.2,14.7h0.3c2.3,0,4.3,1.9,4.3,4.3
		v0.3c0,2.3-1.9,4.3-4.2,4.3h-0.3c-2.3,0-4.2-1.9-4.3-4.3V19C-107.5,16.7-105.6,14.7-103.2,14.7z M-91.3,26.7h0.3
		c2.3,0,4.3,1.9,4.3,4.3v0.3c0,2.3-1.9,4.3-4.3,4.3h-0.3c-2.3,0-4.3-1.9-4.3-4.3v-0.3C-95.6,28.6-93.7,26.7-91.3,26.7z M-85.5,44.7
		h0.3c2.3,0,4.3,1.9,4.3,4.3v0.3c0,2.3-1.9,4.3-4.3,4.3h-0.3c-2.3,0-4.3-1.9-4.3-4.3v-0.3C-89.8,46.6-87.9,44.7-85.5,44.7z
		 M-85.8,68.8h0.3c2.3,0,4.3,1.9,4.3,4.3v0.3c0,2.3-1.9,4.3-4.3,4.3h-0.3c-2.3,0-4.3-1.9-4.3-4.3v-0.3C-90,70.7-88.1,68.8-85.8,68.8
		z M-187.6-0.3c-1,0-2.1-0.4-2.8-1.2l-7.2-7.2c-1.6-1.6-1.6-4.1,0-5.7c1.6-1.6,4.1-1.6,5.7,0l7.2,7.2c1.6,1.6,1.6,4.1,0,5.7
		C-185.6-0.6-186.6-0.3-187.6-0.3z M66.9,18.4h-0.3c-2.3,0-4.3,1.9-4.3,4.3v0.3c0,2.3,1.9,4.3,4.3,4.3h0.3c2.3,0,4.3-1.9,4.3-4.3
		v-0.3C71.2,20.3,69.3,18.4,66.9,18.4z M81.2,3.4h-0.3c-2.3,0-4.3,1.9-4.3,4.3v0.3c0,2.3,1.9,4.3,4.3,4.3h0.3c2.3,0,4.3-1.9,4.3-4.3
		V7.6C85.4,5.3,83.5,3.4,81.2,3.4z M56.8,27.1h-0.3c-2.3,0-4.3,1.9-4.3,4.3v0.3c0,2.3,1.9,4.3,4.3,4.3h0.3c2.3,0,4.3-1.9,4.3-4.3
		v-0.3C61,29,59.1,27.1,56.8,27.1z M61.2,39.6h-0.3c-2.3,0-4.3,1.9-4.3,4.3v0.3c0,2.3,1.9,4.3,4.3,4.3h0.3c2.3,0,4.3-1.9,4.3-4.3
		v-0.3C65.4,41.5,63.5,39.6,61.2,39.6z M38,20.7h-0.3c-2.3,0-4.3,1.9-4.3,4.3v0.3c0,2.3,1.9,4.3,4.3,4.3H38c2.3,0,4.3-1.9,4.3-4.3
		V25C42.2,22.6,40.3,20.7,38,20.7z M54.5,60.3h-0.3c-2.3,0-4.3,1.9-4.3,4.3v0.3c0,2.3,1.9,4.3,4.3,4.3h0.3c2.3,0,4.3-1.9,4.3-4.3
		v-0.3C58.8,62.2,56.9,60.3,54.5,60.3z M80.1,61.7h-0.3c-2.3,0-4.3,1.9-4.3,4.3v0.3c0,2.3,1.9,4.3,4.3,4.3h0.3
		c2.3,0,4.3-1.9,4.3-4.3V66C84.4,63.6,82.5,61.7,80.1,61.7z M75.7,34.9h-0.3c-2.3,0-4.3,1.9-4.3,4.3v0.3c0,2.3,1.9,4.3,4.3,4.3h0.3
		c2.3,0,4.3-1.9,4.3-4.3v-0.3C80,36.8,78.1,34.9,75.7,34.9z M87.4,20.7h-0.3c-2.3,0-4.3,1.9-4.3,4.3v0.3c0,2.3,1.9,4.3,4.3,4.3h0.3
		c2.3,0,4.3-1.9,4.3-4.3V25C91.7,22.6,89.8,20.7,87.4,20.7z M48.3,3.4H48c-2.3,0-4.3,1.9-4.3,4.3v0.3c0,2.3,1.9,4.3,4.3,4.3h0.3
		c2.3,0,4.3-1.9,4.3-4.3V7.6C52.6,5.3,50.7,3.4,48.3,3.4z M38,45.1h-0.3c-2.3,0-4.3,1.9-4.3,4.3v0.3c0,2.3,1.9,4.3,4.3,4.3H38
		c2.3,0,4.3-1.9,4.3-4.3v-0.3C42.2,47,40.3,45.1,38,45.1z M89,40.7h-0.3c-2.3,0-4.3,1.9-4.3,4.3v0.3c0,2.3,1.9,4.3,4.3,4.3H89
		c2.3,0,4.3-1.9,4.3-4.3v-0.3C93.2,42.6,91.3,40.7,89,40.7z"/>
</g>
<g>
	<path class="st6" d="M-233.4,32.7h-10.2c-2.2,0-4-1.8-4-4c0-2.2,1.8-4,4-4h10.2c2.2,0,4,1.8,4,4C-229.4,30.9-231.2,32.7-233.4,32.7
		 M-224,80.3c-1,0-2-0.4-2.8-1.2c-1.6-1.6-1.6-4.1,0-5.7l7.2-7.2c1.6-1.6,4.1-1.6,5.7,0c1.6,1.6,1.6,4.1,0,5.7l-7.2,7.2
		C-221.9,79.9-222.9,80.3-224,80.3z M-176.5-24.3c-2.2,0-4-1.8-4-4l0-10.2c0-2.2,1.8-4,4-4c2.2,0,4,1.8,4,4l0,10.2
		C-172.5-26.1-174.3-24.3-176.5-24.3z M-136.2-7.6c-1,0-2-0.4-2.8-1.2c-1.6-1.6-1.6-4.1,0-5.7l7.2-7.3c1.6-1.6,4.1-1.6,5.7,0
		c1.6,1.6,1.6,4.1,0,5.7l-7.2,7.2C-134.2-8-135.2-7.6-136.2-7.6z M-204.3,61.4c-1.1,0-2.1-0.4-2.8-1.2c-8.3-8.3-12.8-19.3-12.8-31.1
		c0-24.2,19.7-44,43.9-44c11.7,0,22.7,4.6,31,12.9c0.8,0.8,1.2,1.8,1.2,2.8c0,1.1-0.4,2.1-1.2,2.8l-56.4,56.5
		C-202.2,60.9-203.2,61.4-204.3,61.4z M-193.2,68.4h0.3c2.3,0,4.2,1.9,4.3,4.3V73c0,2.3-1.9,4.3-4.3,4.3h-0.3
		c-2.3,0-4.3-1.9-4.3-4.3v-0.3C-197.5,70.3-195.6,68.4-193.2,68.4z M-181,56.2h0.3c2.3,0,4.3,1.9,4.3,4.3v0.3c0,2.3-1.9,4.3-4.3,4.3
		h-0.3c-2.3,0-4.3-1.9-4.3-4.3v-0.3C-185.3,58.1-183.4,56.2-181,56.2z M-168.9,44h0.3c2.3,0,4.3,1.9,4.3,4.3v0.3
		c0,2.3-1.9,4.3-4.3,4.3h-0.3c-2.3,0-4.3-1.9-4.3-4.3v-0.3C-173.1,45.9-171.2,44-168.9,44z M-156.7,31.8h0.3c2.3,0,4.3,1.9,4.3,4.3
		v0.3c0,2.3-1.9,4.3-4.2,4.3h-0.3c-2.3,0-4.2-1.9-4.3-4.3v-0.3C-161,33.7-159,31.8-156.7,31.8z M-144.5,19.6h0.3
		c2.3,0,4.3,1.9,4.3,4.3v0.3c0,2.3-1.9,4.3-4.3,4.3h-0.3c-2.3,0-4.2-1.9-4.3-4.3v-0.3C-148.8,21.5-146.9,19.6-144.5,19.6z
		 M-181.3,80.3h0.3c2.3,0,4.3,1.9,4.3,4.3v0.3c0,2.3-1.9,4.3-4.3,4.3h-0.3c-2.3,0-4.3-1.9-4.3-4.3v-0.3
		C-185.6,82.2-183.7,80.3-181.3,80.3z M-169.1,68.1h0.3c2.3,0,4.3,1.9,4.3,4.3v0.3c0,2.3-1.9,4.3-4.2,4.3h-0.3
		c-2.3,0-4.3-1.9-4.3-4.3v-0.3C-173.4,70-171.5,68.1-169.1,68.1z M-157,55.9h0.3c2.3,0,4.3,1.9,4.3,4.3v0.3c0,2.3-1.9,4.3-4.2,4.3
		h-0.3c-2.3,0-4.2-1.9-4.3-4.3v-0.3C-161.2,57.8-159.3,55.9-157,55.9z M-144.8,43.7h0.3c2.3,0,4.3,1.9,4.3,4.3v0.3
		c0,2.3-1.9,4.3-4.3,4.3h-0.3c-2.3,0-4.3-1.9-4.3-4.3V48C-149.1,45.6-147.1,43.7-144.8,43.7z M-132.6,31.5h0.3
		c2.3,0,4.3,1.9,4.3,4.3v0.3c0,2.3-1.9,4.3-4.3,4.3h-0.3c-2.3,0-4.3-1.9-4.3-4.3v-0.3C-136.9,33.4-135,31.5-132.6,31.5z
		 M-163.3,86.1h0.3c2.3,0,4.3,1.9,4.3,4.3v0.3c0,2.3-1.9,4.3-4.2,4.3h-0.3c-2.3,0-4.2-1.9-4.2-4.3v-0.3
		C-167.6,88-165.7,86.1-163.3,86.1z M-151.2,73.9h0.3c2.3,0,4.2,1.9,4.3,4.3v0.3c0,2.3-1.9,4.3-4.3,4.3h-0.3c-2.3,0-4.3-1.9-4.3-4.3
		v-0.3C-155.4,75.8-153.5,73.9-151.2,73.9z M-139,61.7h0.3c2.3,0,4.3,1.9,4.3,4.3v0.3c0,2.3-1.9,4.3-4.3,4.3h-0.3
		c-2.3,0-4.3-1.9-4.3-4.3V66C-143.2,63.6-141.3,61.7-139,61.7z M-126.8,49.5h0.3c2.3,0,4.3,1.9,4.3,4.3v0.3c0,2.3-1.9,4.3-4.2,4.3
		h-0.3c-2.3,0-4.2-1.9-4.3-4.3v-0.3C-131.1,51.4-129.2,49.5-126.8,49.5z M-139.3,85.8h0.3c2.3,0,4.3,1.9,4.3,4.3v0.3
		c0,2.3-1.9,4.3-4.3,4.3h-0.3c-2.3,0-4.3-1.9-4.3-4.3v-0.3C-143.5,87.8-141.6,85.8-139.3,85.8z M-127.1,73.6h0.3
		c2.3,0,4.3,1.9,4.3,4.3v0.3c0,2.3-1.9,4.3-4.2,4.3h-0.3c-2.3,0-4.3-1.9-4.3-4.3v-0.3C-131.3,75.6-129.4,73.6-127.1,73.6z
		 M-132.4,7.4h0.3c2.3,0,4.3,1.9,4.3,4.3V12c0,2.3-1.9,4.3-4.2,4.3h-0.3c-2.3,0-4.2-1.9-4.3-4.3v-0.3
		C-136.6,9.3-134.7,7.4-132.4,7.4z M-120.5,19.3h0.3c2.3,0,4.3,1.9,4.3,4.3v0.3c0,2.3-1.9,4.3-4.3,4.3h-0.3c-2.3,0-4.3-1.9-4.3-4.3
		v-0.3C-124.7,21.2-122.8,19.3-120.5,19.3z M-114.6,37.3h0.3c2.3,0,4.3,1.9,4.3,4.3v0.3c0,2.3-1.9,4.3-4.3,4.3h-0.3
		c-2.3,0-4.3-1.9-4.3-4.3v-0.3C-118.9,39.2-117,37.3-114.6,37.3z M-114.9,61.4h0.3c2.3,0,4.3,1.9,4.3,4.3V66c0,2.3-1.9,4.3-4.3,4.3
		h-0.3c-2.3,0-4.3-1.9-4.3-4.3v-0.3C-119.2,63.4-117.3,61.4-114.9,61.4z M-216.7-7.6c-1,0-2.1-0.4-2.8-1.2l-7.2-7.2
		c-1.6-1.6-1.6-4.1,0-5.7c1.6-1.6,4.1-1.6,5.7,0l7.2,7.2c1.6,1.6,1.6,4.1,0,5.7C-214.7-8-215.7-7.6-216.7-7.6z M37.8,11h-0.3
		c-2.3,0-4.3,1.9-4.3,4.3v0.3c0,2.3,1.9,4.3,4.3,4.3h0.3c2.3,0,4.3-1.9,4.3-4.3v-0.3C42.1,12.9,40.2,11,37.8,11z M52.1-4h-0.3
		c-2.3,0-4.3,1.9-4.3,4.3v0.3c0,2.3,1.9,4.3,4.3,4.3h0.3c2.3,0,4.3-1.9,4.3-4.3V0.3C56.3-2.1,54.4-4,52.1-4z M27.7,19.7h-0.3
		c-2.3,0-4.3,1.9-4.3,4.3v0.3c0,2.3,1.9,4.3,4.3,4.3h0.3c2.3,0,4.3-1.9,4.3-4.3V24C31.9,21.6,30,19.7,27.7,19.7z M32.1,32.2h-0.3
		c-2.3,0-4.3,1.9-4.3,4.3v0.3c0,2.3,1.9,4.3,4.3,4.3h0.3c2.3,0,4.3-1.9,4.3-4.3v-0.3C36.3,34.1,34.4,32.2,32.1,32.2z M8.9,13.4H8.6
		c-2.3,0-4.3,1.9-4.3,4.3v0.3c0,2.3,1.9,4.3,4.3,4.3h0.3c2.3,0,4.3-1.9,4.3-4.3v-0.3C13.1,15.3,11.2,13.4,8.9,13.4z M25.4,52.9h-0.3
		c-2.3,0-4.3,1.9-4.3,4.3v0.3c0,2.3,1.9,4.3,4.3,4.3h0.3c2.3,0,4.3-1.9,4.3-4.3v-0.3C29.7,54.9,27.8,52.9,25.4,52.9z M51,54.3h-0.3
		c-2.3,0-4.3,1.9-4.3,4.3v0.3c0,2.3,1.9,4.3,4.3,4.3H51c2.3,0,4.3-1.9,4.3-4.3v-0.3C55.3,56.3,53.4,54.3,51,54.3z M46.6,27.5h-0.3
		c-2.3,0-4.3,1.9-4.3,4.3v0.3c0,2.3,1.9,4.3,4.3,4.3h0.3c2.3,0,4.3-1.9,4.3-4.3v-0.3C50.9,29.4,49,27.5,46.6,27.5z M58.3,13.4H58
		c-2.3,0-4.3,1.9-4.3,4.3v0.3c0,2.3,1.9,4.3,4.3,4.3h0.3c2.3,0,4.3-1.9,4.3-4.3v-0.3C62.6,15.3,60.7,13.4,58.3,13.4z M19.2-4h-0.3
		c-2.3,0-4.3,1.9-4.3,4.3v0.3c0,2.3,1.9,4.3,4.3,4.3h0.3c2.3,0,4.3-1.9,4.3-4.3V0.3C23.5-2.1,21.6-4,19.2-4z M8.9,37.7H8.6
		c-2.3,0-4.3,1.9-4.3,4.3v0.3c0,2.3,1.9,4.3,4.3,4.3h0.3c2.3,0,4.3-1.9,4.3-4.3V42C13.1,39.7,11.2,37.7,8.9,37.7z M59.8,33.3h-0.3
		c-2.3,0-4.3,1.9-4.3,4.3v0.3c0,2.3,1.9,4.3,4.3,4.3h0.3c2.3,0,4.3-1.9,4.3-4.3v-0.3C64.1,35.2,62.2,33.3,59.8,33.3z"/>
</g>
<g>
	<path class="st6" d="M-235,55.8h-10.2c-2.2,0-4-1.8-4-4c0-2.2,1.8-4,4-4h10.2c2.2,0,4,1.8,4,4C-231,54-232.8,55.8-235,55.8
		 M-225.6,103.4c-1,0-2-0.4-2.8-1.2c-1.6-1.6-1.6-4.1,0-5.7l7.2-7.2c1.6-1.6,4.1-1.6,5.7,0c1.6,1.6,1.6,4.1,0,5.7l-7.2,7.2
		C-223.6,103-224.6,103.4-225.6,103.4z M-178.1-1.2c-2.2,0-4-1.8-4-4l0-10.2c0-2.2,1.8-4,4-4c2.2,0,4,1.8,4,4l0,10.2
		C-174.1-3-175.9-1.2-178.1-1.2z M-137.9,15.4c-1,0-2-0.4-2.8-1.2c-1.6-1.6-1.6-4.1,0-5.7l7.2-7.3c1.6-1.6,4.1-1.6,5.7,0
		c1.6,1.6,1.6,4.1,0,5.7l-7.2,7.2C-135.8,15.1-136.9,15.4-137.9,15.4z M-205.9,84.5c-1.1,0-2.1-0.4-2.8-1.2
		c-8.3-8.3-12.8-19.3-12.8-31.1c0-24.2,19.7-44,43.9-44c11.7,0,22.7,4.6,31,12.9c0.8,0.8,1.2,1.8,1.2,2.8c0,1.1-0.4,2.1-1.2,2.8
		l-56.4,56.5C-203.8,84-204.9,84.5-205.9,84.5z M-194.9,91.5h0.3c2.3,0,4.2,1.9,4.3,4.3V96c0,2.3-1.9,4.3-4.3,4.3h-0.3
		c-2.3,0-4.3-1.9-4.3-4.3v-0.3C-199.1,93.4-197.2,91.5-194.9,91.5z M-182.7,79.3h0.3c2.3,0,4.3,1.9,4.3,4.3v0.3
		c0,2.3-1.9,4.3-4.3,4.3h-0.3c-2.3,0-4.3-1.9-4.3-4.3v-0.3C-186.9,81.2-185,79.3-182.7,79.3z M-170.5,67.1h0.3
		c2.3,0,4.3,1.9,4.3,4.3v0.3c0,2.3-1.9,4.3-4.3,4.3h-0.3c-2.3,0-4.3-1.9-4.3-4.3v-0.3C-174.8,69-172.9,67.1-170.5,67.1z
		 M-158.4,54.9h0.3c2.3,0,4.3,1.9,4.3,4.3v0.3c0,2.3-1.9,4.3-4.2,4.3h-0.3c-2.3,0-4.2-1.9-4.3-4.3v-0.3
		C-162.6,56.8-160.7,54.9-158.4,54.9z M-146.2,42.7h0.3c2.3,0,4.3,1.9,4.3,4.3v0.3c0,2.3-1.9,4.3-4.3,4.3h-0.3
		c-2.3,0-4.2-1.9-4.3-4.3v-0.3C-150.4,44.6-148.5,42.7-146.2,42.7z M-183,103.4h0.3c2.3,0,4.3,1.9,4.3,4.3v0.3
		c0,2.3-1.9,4.3-4.3,4.3h-0.3c-2.3,0-4.3-1.9-4.3-4.3v-0.3C-187.2,105.3-185.3,103.4-183,103.4z M-170.8,91.2h0.3
		c2.3,0,4.3,1.9,4.3,4.3v0.3c0,2.3-1.9,4.3-4.2,4.3h-0.3c-2.3,0-4.3-1.9-4.3-4.3v-0.3C-175,93.1-173.1,91.2-170.8,91.2z M-158.6,79
		h0.3c2.3,0,4.3,1.9,4.3,4.3v0.3c0,2.3-1.9,4.3-4.2,4.3h-0.3c-2.3,0-4.2-1.9-4.3-4.3v-0.3C-162.9,80.9-161,79-158.6,79z
		 M-146.5,66.8h0.3c2.3,0,4.3,1.9,4.3,4.3v0.3c0,2.3-1.9,4.3-4.3,4.3h-0.3c-2.3,0-4.3-1.9-4.3-4.3v-0.3
		C-150.7,68.7-148.8,66.8-146.5,66.8z M-134.3,54.6h0.3c2.3,0,4.3,1.9,4.3,4.3v0.3c0,2.3-1.9,4.3-4.3,4.3h-0.3
		c-2.3,0-4.3-1.9-4.3-4.3v-0.3C-138.5,56.5-136.6,54.6-134.3,54.6z M-165,109.2h0.3c2.3,0,4.3,1.9,4.3,4.3v0.3
		c0,2.3-1.9,4.3-4.2,4.3h-0.3c-2.3,0-4.2-1.9-4.2-4.3v-0.3C-169.2,111.1-167.3,109.2-165,109.2z M-152.8,97h0.3
		c2.3,0,4.2,1.9,4.3,4.3v0.3c0,2.3-1.9,4.3-4.3,4.3h-0.3c-2.3,0-4.3-1.9-4.3-4.3v-0.3C-157.1,98.9-155.1,97-152.8,97z M-140.6,84.8
		h0.3c2.3,0,4.3,1.9,4.3,4.3v0.3c0,2.3-1.9,4.3-4.3,4.3h-0.3c-2.3,0-4.3-1.9-4.3-4.3v-0.3C-144.9,86.7-143,84.8-140.6,84.8z
		 M-128.5,72.6h0.3c2.3,0,4.3,1.9,4.3,4.3v0.3c0,2.3-1.9,4.3-4.2,4.3h-0.3c-2.3,0-4.2-1.9-4.3-4.3v-0.3
		C-132.7,74.5-130.8,72.6-128.5,72.6z M-140.9,108.9h0.3c2.3,0,4.3,1.9,4.3,4.3v0.3c0,2.3-1.9,4.3-4.3,4.3h-0.3
		c-2.3,0-4.3-1.9-4.3-4.3v-0.3C-145.2,110.8-143.2,108.9-140.9,108.9z M-128.7,96.7h0.3c2.3,0,4.3,1.9,4.3,4.3v0.3
		c0,2.3-1.9,4.3-4.2,4.3h-0.3c-2.3,0-4.3-1.9-4.3-4.3V101C-133,98.6-131.1,96.7-128.7,96.7z M-134,30.5h0.3c2.3,0,4.3,1.9,4.3,4.3
		V35c0,2.3-1.9,4.3-4.2,4.3h-0.3c-2.3,0-4.2-1.9-4.3-4.3v-0.3C-138.3,32.4-136.3,30.5-134,30.5z M-122.1,42.4h0.3
		c2.3,0,4.3,1.9,4.3,4.3V47c0,2.3-1.9,4.3-4.3,4.3h-0.3c-2.3,0-4.3-1.9-4.3-4.3v-0.3C-126.4,44.3-124.4,42.4-122.1,42.4z
		 M-116.3,60.4h0.3c2.3,0,4.3,1.9,4.3,4.3V65c0,2.3-1.9,4.3-4.3,4.3h-0.3c-2.3,0-4.3-1.9-4.3-4.3v-0.3
		C-120.5,62.3-118.6,60.4-116.3,60.4z M-116.6,84.5h0.3c2.3,0,4.3,1.9,4.3,4.3v0.3c0,2.3-1.9,4.3-4.3,4.3h-0.3
		c-2.3,0-4.3-1.9-4.3-4.3v-0.3C-120.8,86.4-118.9,84.5-116.6,84.5z M-218.4,15.5c-1,0-2.1-0.4-2.8-1.2l-7.2-7.2
		c-1.6-1.6-1.6-4.1,0-5.7c1.6-1.6,4.1-1.6,5.7,0l7.2,7.2c1.6,1.6,1.6,4.1,0,5.7C-216.3,15.1-217.4,15.5-218.4,15.5z M36.2,34.1h-0.3
		c-2.3,0-4.3,1.9-4.3,4.3v0.3c0,2.3,1.9,4.3,4.3,4.3h0.3c2.3,0,4.3-1.9,4.3-4.3v-0.3C40.4,36,38.5,34.1,36.2,34.1z M50.4,19.1h-0.3
		c-2.3,0-4.3,1.9-4.3,4.3v0.3c0,2.3,1.9,4.3,4.3,4.3h0.3c2.3,0,4.3-1.9,4.3-4.3v-0.3C54.7,21,52.8,19.1,50.4,19.1z M26,42.8h-0.3
		c-2.3,0-4.3,1.9-4.3,4.3v0.3c0,2.3,1.9,4.3,4.3,4.3H26c2.3,0,4.3-1.9,4.3-4.3v-0.3C30.3,44.7,28.3,42.8,26,42.8z M30.4,55.3h-0.3
		c-2.3,0-4.3,1.9-4.3,4.3v0.3c0,2.3,1.9,4.3,4.3,4.3h0.3c2.3,0,4.3-1.9,4.3-4.3v-0.3C34.7,57.2,32.8,55.3,30.4,55.3z M7.2,36.5H6.9
		c-2.3,0-4.3,1.9-4.3,4.3V41c0,2.3,1.9,4.3,4.3,4.3h0.3c2.3,0,4.3-1.9,4.3-4.3v-0.3C11.5,38.4,9.6,36.5,7.2,36.5z M23.8,76h-0.3
		c-2.3,0-4.3,1.9-4.3,4.3v0.3c0,2.3,1.9,4.3,4.3,4.3h0.3c2.3,0,4.3-1.9,4.3-4.3v-0.3C28,78,26.1,76,23.8,76z M49.4,77.4h-0.3
		c-2.3,0-4.3,1.9-4.3,4.3V82c0,2.3,1.9,4.3,4.3,4.3h0.3c2.3,0,4.3-1.9,4.3-4.3v-0.3C53.6,79.4,51.7,77.4,49.4,77.4z M45,50.6h-0.3
		c-2.3,0-4.3,1.9-4.3,4.3v0.3c0,2.3,1.9,4.3,4.3,4.3H45c2.3,0,4.3-1.9,4.3-4.3v-0.3C49.2,52.5,47.3,50.6,45,50.6z M56.7,36.5h-0.3
		c-2.3,0-4.3,1.9-4.3,4.3V41c0,2.3,1.9,4.3,4.3,4.3h0.3c2.3,0,4.3-1.9,4.3-4.3v-0.3C60.9,38.4,59,36.5,56.7,36.5z M17.6,19.1h-0.3
		c-2.3,0-4.3,1.9-4.3,4.3v0.3c0,2.3,1.9,4.3,4.3,4.3h0.3c2.3,0,4.3-1.9,4.3-4.3v-0.3C21.8,21,19.9,19.1,17.6,19.1z M7.2,60.8H6.9
		c-2.3,0-4.3,1.9-4.3,4.3v0.3c0,2.3,1.9,4.3,4.3,4.3h0.3c2.3,0,4.3-1.9,4.3-4.3v-0.3C11.5,62.7,9.6,60.8,7.2,60.8z M58.2,56.4h-0.3
		c-2.3,0-4.3,1.9-4.3,4.3V61c0,2.3,1.9,4.3,4.3,4.3h0.3c2.3,0,4.3-1.9,4.3-4.3v-0.3C62.4,58.3,60.5,56.4,58.2,56.4z"/>
</g>
</svg>
