<?xml version="1.0" encoding="utf-8"?>
<!-- Generator: Adobe Illustrator 22.1.0, SVG Export Plug-In . SVG Version: 6.00 Build 0)  -->
<svg version="1.1" id="Layer_1" xmlns="http://www.w3.org/2000/svg" xmlns:xlink="http://www.w3.org/1999/xlink" x="0px" y="0px"
	 viewBox="0 0 167.9 105.8" style="enable-background:new 0 0 167.9 105.8;" xml:space="preserve">
<style type="text/css">
	.st0{fill:#FFFFFF;}
	.st1{fill:none;stroke:#66CCCC;stroke-width:6;stroke-miterlimit:10;}
	.st2{fill:none;stroke:#F4BF7A;stroke-width:2;stroke-miterlimit:10;}
</style>
<g>
	<path class="st2" d="M46.5,29.3c-8.2,0-14.9,6.7-14.9,14.9c0,8.2,6.6,14.9,14.9,14.9c8.2,0,14.9-6.7,14.9-14.9
		C61.4,35.9,54.7,29.3,46.5,29.3z M44.2,15.2c0,2.1,0,4.2,0,6.2c0,0.2,0,0.4,0,0.6c0.2,1.3,1.5,2.2,2.8,1.9c1.1-0.3,1.8-1.1,1.8-2.3
		c0-4.2,0-8.5,0-12.7c0-0.1,0-0.3,0-0.4c-0.1-1.1-1.1-1.9-2.2-2c-1.3,0-2.4,1-2.4,2.4C44.2,11,44.2,13.1,44.2,15.2z M17.6,46.4
		c1.9,0,3.8,0,5.7,0c0.3,0,0.7,0,1,0c1.4-0.1,2.3-1.4,2-2.8c-0.2-1.1-1.2-1.8-2.4-1.8c-4.2,0-8.4,0-12.5,0c-0.2,0-0.4,0-0.5,0
		c-1.1,0.1-1.9,1-1.9,2.1c-0.1,1.4,1,2.4,2.4,2.4C13.4,46.4,15.5,46.4,17.6,46.4z M75.4,46.4c2.1,0,4.2,0,6.2,0c0.2,0,0.4,0,0.6,0
		c1.3-0.2,2.1-1.4,1.9-2.6c-0.2-1.2-1.1-1.9-2.4-1.9c-4.2,0-8.4,0-12.6,0c-0.2,0-0.3,0-0.5,0c-0.9,0.1-1.6,0.8-1.9,1.7
		c-0.4,1.5,0.7,2.9,2.3,2.9C71.1,46.4,73.3,46.4,75.4,46.4z M44.2,73.1c0,2.1,0,4.1,0,6.2c0,0.2,0,0.4,0,0.6
		c0.2,1.2,1.4,2.1,2.6,1.9c1.2-0.2,1.9-1.1,1.9-2.4c0-4.2,0-8.4,0-12.6c0-0.1,0-0.3,0-0.4c-0.2-1.3-1.4-2.2-2.7-2
		c-1.1,0.2-1.9,1.1-1.9,2.4C44.2,68.8,44.2,71,44.2,73.1z M19.2,19c0,0.8,0.3,1.4,0.8,1.8c3,3,5.9,5.9,8.9,8.9
		c0.1,0.1,0.2,0.2,0.2,0.2c1.2,1.1,3.2,0.5,3.7-1c0.3-0.9,0-1.7-0.6-2.4c-3-3-6-6-9-9c-0.1-0.1-0.2-0.2-0.3-0.3
		c-0.8-0.5-1.6-0.6-2.4-0.2C19.6,17.5,19.3,18.2,19.2,19z M73.9,19.1c-0.1-0.4-0.2-0.8-0.4-1.1c-0.8-1.3-2.5-1.5-3.6-0.4
		c-3,3-6,6-9,9c-0.1,0.1-0.2,0.2-0.2,0.3c-0.6,0.8-0.7,1.8-0.2,2.7c0.5,0.8,1.5,1.3,2.5,1c0.4-0.1,0.8-0.3,1.1-0.6
		c3-3,6.1-6,9.1-9.1C73.5,20.4,73.8,19.8,73.9,19.1z M73.8,69.3c0-0.8-0.3-1.4-0.8-1.9c-2.6-2.6-5.2-5.2-7.8-7.8
		c-0.4-0.4-0.8-0.8-1.2-1.2c-0.7-0.7-1.8-0.8-2.7-0.4c-1.4,0.7-1.6,2.5-0.5,3.7c2,2,4,4,6.1,6.1c1,1,2,2,3,3
		c0.7,0.7,1.7,0.9,2.5,0.5C73.3,70.9,73.7,70.1,73.8,69.3z M21.4,71.4c0.8,0,1.4-0.3,1.8-0.8c3-3,6-6,9-9c0.1-0.1,0.2-0.2,0.3-0.4
		c1-1.4,0.2-3.3-1.5-3.6c-0.8-0.1-1.5,0.1-2,0.7c-3,3-6,6-9,9c-0.1,0.1-0.2,0.2-0.3,0.3c-0.5,0.7-0.6,1.6-0.2,2.4
		C19.9,71,20.6,71.4,21.4,71.4z"/>
	<path class="st2" d="M44.2,15.2c0-2.1,0-4.2,0-6.3c0-1.4,1-2.4,2.4-2.4c1.1,0,2,0.9,2.2,2c0,0.1,0,0.3,0,0.4c0,4.2,0,8.5,0,12.7
		c0,1.2-0.7,2.1-1.8,2.3c-1.3,0.3-2.6-0.6-2.8-1.9c0-0.2,0-0.4,0-0.6C44.2,19.4,44.2,17.3,44.2,15.2z"/>
</g>
<g>
	<path class="st2" d="M138.6,1.7c-8.2,0-14.9,6.7-14.9,14.9c0,8.2,6.6,14.9,14.9,14.9c8.2,0,14.9-6.7,14.9-14.9
		C153.4,8.4,146.8,1.7,138.6,1.7z M136.3-12.3c0,2.1,0,4.2,0,6.2c0,0.2,0,0.4,0,0.6c0.2,1.3,1.5,2.2,2.8,1.9
		c1.1-0.3,1.8-1.1,1.8-2.3c0-4.2,0-8.5,0-12.7c0-0.1,0-0.3,0-0.4c-0.1-1.1-1.1-1.9-2.2-2c-1.3,0-2.4,1-2.4,2.4
		C136.3-16.6,136.3-14.5,136.3-12.3z M109.7,18.9c1.9,0,3.8,0,5.7,0c0.3,0,0.7,0,1,0c1.4-0.1,2.3-1.4,2-2.8
		c-0.2-1.1-1.2-1.8-2.4-1.8c-4.2,0-8.4,0-12.5,0c-0.2,0-0.4,0-0.5,0c-1.1,0.1-1.9,1-1.9,2.1c-0.1,1.4,1,2.4,2.4,2.4
		C105.4,18.9,107.5,18.9,109.7,18.9z M167.4,18.9c2.1,0,4.2,0,6.2,0c0.2,0,0.4,0,0.6,0c1.3-0.2,2.1-1.4,1.9-2.6
		c-0.2-1.2-1.1-1.9-2.4-1.9c-4.2,0-8.4,0-12.6,0c-0.2,0-0.3,0-0.5,0c-0.9,0.1-1.6,0.8-1.9,1.7c-0.4,1.5,0.7,2.9,2.3,2.9
		C163.2,18.9,165.3,18.9,167.4,18.9z M136.3,45.5c0,2.1,0,4.1,0,6.2c0,0.2,0,0.4,0,0.6c0.2,1.2,1.4,2.1,2.6,1.9
		c1.2-0.2,1.9-1.1,1.9-2.4c0-4.2,0-8.4,0-12.6c0-0.1,0-0.3,0-0.4c-0.2-1.3-1.4-2.2-2.7-2c-1.1,0.2-1.9,1.1-1.9,2.4
		C136.3,41.3,136.3,43.4,136.3,45.5z M111.3-8.5c0,0.8,0.3,1.4,0.8,1.8c3,3,5.9,5.9,8.9,8.9c0.1,0.1,0.2,0.2,0.2,0.2
		c1.2,1.1,3.2,0.5,3.7-1c0.3-0.9,0-1.7-0.6-2.4c-3-3-6-6-9-9c-0.1-0.1-0.2-0.2-0.3-0.3c-0.8-0.5-1.6-0.6-2.4-0.2
		C111.7-10,111.3-9.3,111.3-8.5z M165.9-8.4c-0.1-0.4-0.2-0.8-0.4-1.1c-0.8-1.3-2.5-1.5-3.6-0.4c-3,3-6,6-9,9
		c-0.1,0.1-0.2,0.2-0.2,0.3C152,0,152,1.1,152.5,1.9c0.5,0.8,1.5,1.3,2.5,1c0.4-0.1,0.8-0.3,1.1-0.6c3-3,6.1-6,9.1-9.1
		C165.6-7.2,165.8-7.8,165.9-8.4z M165.8,41.7c0-0.8-0.3-1.4-0.8-1.9c-2.6-2.6-5.2-5.2-7.8-7.8c-0.4-0.4-0.8-0.8-1.2-1.2
		c-0.7-0.7-1.8-0.8-2.7-0.4c-1.4,0.7-1.6,2.5-0.5,3.7c2,2,4,4,6.1,6.1c1,1,2,2,3,3c0.7,0.7,1.7,0.9,2.5,0.5
		C165.4,43.3,165.8,42.6,165.8,41.7z M113.4,43.9c0.8,0,1.4-0.3,1.8-0.8c3-3,6-6,9-9c0.1-0.1,0.2-0.2,0.3-0.4c1-1.4,0.2-3.3-1.5-3.6
		c-0.8-0.1-1.5,0.1-2,0.7c-3,3-6,6-9,9c-0.1,0.1-0.2,0.2-0.3,0.3c-0.5,0.7-0.6,1.6-0.2,2.4C111.9,43.4,112.6,43.8,113.4,43.9z"/>
</g>
<g>
	<path class="st2" d="M123.8,80.5c-8.2,0-14.9,6.7-14.9,14.9c0,8.2,6.6,14.9,14.9,14.9c8.2,0,14.9-6.7,14.9-14.9
		C138.7,87.2,132,80.5,123.8,80.5z M121.6,66.5c0,2.1,0,4.2,0,6.2c0,0.2,0,0.4,0,0.6c0.2,1.3,1.5,2.2,2.8,1.9
		c1.1-0.3,1.8-1.1,1.8-2.3c0-4.2,0-8.5,0-12.7c0-0.1,0-0.3,0-0.4c-0.1-1.1-1.1-1.9-2.2-2c-1.3,0-2.4,1-2.4,2.4
		C121.5,62.2,121.6,64.3,121.6,66.5z M94.9,97.7c1.9,0,3.8,0,5.7,0c0.3,0,0.7,0,1,0c1.4-0.1,2.3-1.4,2-2.8c-0.2-1.1-1.2-1.8-2.4-1.8
		c-4.2,0-8.4,0-12.5,0c-0.2,0-0.4,0-0.5,0c-1.1,0.1-1.9,1-1.9,2.1c-0.1,1.4,1,2.4,2.4,2.4C90.7,97.7,92.8,97.7,94.9,97.7z
		 M152.7,97.7c2.1,0,4.2,0,6.2,0c0.2,0,0.4,0,0.6,0c1.3-0.2,2.1-1.4,1.9-2.6c-0.2-1.2-1.1-1.9-2.4-1.9c-4.2,0-8.4,0-12.6,0
		c-0.2,0-0.3,0-0.5,0c-0.9,0.1-1.6,0.8-1.9,1.7c-0.4,1.5,0.7,2.9,2.3,2.9C148.5,97.7,150.6,97.7,152.7,97.7z M121.6,124.3
		c0,2.1,0,4.1,0,6.2c0,0.2,0,0.4,0,0.6c0.2,1.2,1.4,2.1,2.6,1.9c1.2-0.2,1.9-1.1,1.9-2.4c0-4.2,0-8.4,0-12.6c0-0.1,0-0.3,0-0.4
		c-0.2-1.3-1.4-2.2-2.7-2c-1.1,0.2-1.9,1.1-1.9,2.4C121.6,120.1,121.6,122.2,121.6,124.3z M96.6,70.3c0,0.8,0.3,1.4,0.8,1.8
		c3,3,5.9,5.9,8.9,8.9c0.1,0.1,0.2,0.2,0.2,0.2c1.2,1.1,3.2,0.5,3.7-1c0.3-0.9,0-1.7-0.6-2.4c-3-3-6-6-9-9c-0.1-0.1-0.2-0.2-0.3-0.3
		c-0.8-0.5-1.6-0.6-2.4-0.2C97,68.8,96.6,69.5,96.6,70.3z M151.2,70.4c-0.1-0.4-0.2-0.8-0.4-1.1c-0.8-1.3-2.5-1.5-3.6-0.4
		c-3,3-6,6-9,9c-0.1,0.1-0.2,0.2-0.2,0.3c-0.6,0.8-0.7,1.8-0.2,2.7c0.5,0.8,1.5,1.3,2.5,1c0.4-0.1,0.8-0.3,1.1-0.6
		c3-3,6.1-6,9.1-9.1C150.9,71.6,151.1,71,151.2,70.4z M151.1,120.5c0-0.8-0.3-1.4-0.8-1.9c-2.6-2.6-5.2-5.2-7.8-7.8
		c-0.4-0.4-0.8-0.8-1.2-1.2c-0.7-0.7-1.8-0.8-2.7-0.4c-1.4,0.7-1.6,2.5-0.5,3.7c2,2,4,4,6.1,6.1c1,1,2,2,3,3
		c0.7,0.7,1.7,0.9,2.5,0.5C150.6,122.1,151.1,121.4,151.1,120.5z M98.7,122.7c0.8,0,1.4-0.3,1.8-0.8c3-3,6-6,9-9
		c0.1-0.1,0.2-0.2,0.3-0.4c1-1.4,0.2-3.3-1.5-3.6c-0.8-0.1-1.5,0.1-2,0.7c-3,3-6,6-9,9c-0.1,0.1-0.2,0.2-0.3,0.3
		c-0.5,0.7-0.6,1.6-0.2,2.4C97.2,122.2,97.9,122.6,98.7,122.7z"/>
	<path class="st2" d="M121.6,66.5c0-2.1,0-4.2,0-6.3c0-1.4,1-2.4,2.4-2.4c1.1,0,2,0.9,2.2,2c0,0.1,0,0.3,0,0.4c0,4.2,0,8.5,0,12.7
		c0,1.2-0.7,2.1-1.8,2.3c-1.3,0.3-2.6-0.6-2.8-1.9c0-0.2,0-0.4,0-0.6C121.6,70.6,121.6,68.5,121.6,66.5z"/>
</g>
</svg>
