<?xml version="1.0" encoding="utf-8"?>
<!-- Generator: Adobe Illustrator 22.1.0, SVG Export Plug-In . SVG Version: 6.00 Build 0)  -->
<svg version="1.1" id="Layer_1" xmlns="http://www.w3.org/2000/svg" xmlns:xlink="http://www.w3.org/1999/xlink" x="0px" y="0px"
	 viewBox="0 0 167.9 116.7" style="enable-background:new 0 0 167.9 116.7;" xml:space="preserve">
<style type="text/css">
	.st0{fill:#FFFFFF;}
</style>
<g>
	<path class="st0" d="M5.2,54.4c1.4-4.9,3.3-9.4,7-13c5.7-5.6,12.3-7.6,22.1-6.5c1.9-3.3,3.6-6.8,5.8-9.8C45.5,17.6,53,13.3,62,11.5
		c0.5-0.1,0.9-0.3,1.4-0.5c3.4,0,6.8,0,10.2,0c1.3,0.4,2.6,0.7,3.8,1.1c9.4,2.6,16.6,8,21.9,16.6c-2.1,0.4-3.9,1-5.7,1.1
		c-0.8,0-1.8-0.7-2.3-1.4c-11.2-13.3-30-14.7-42.8-3.1c-4.4,4-7.1,9-8.5,14.8c-0.3,1.1-0.5,2.1-0.8,3.5c-6.9-3.3-13.6-4-20.1,0.6
		c-3.8,2.7-6.3,6.4-7.1,11.1c-1.1,6.5,0.9,12.1,5.9,16.5c5,4.4,11.2,4.4,17.5,4.2c-0.3,2.3-0.5,4.2-0.7,6.2
		C21.2,84.4,9.1,76.7,5.8,63.9c-0.1-0.5-0.4-0.9-0.5-1.4C5.2,59.8,5.2,57.1,5.2,54.4z"/>
	<path class="st0" d="M69.2,58.5c2.1-5.4,5.4-10.4,10.2-14.4c18.6-15.5,47.7-6.6,54.2,16.8c0.6,2.1,1.4,3.1,3.6,3.7
		c9.6,2.5,14.7,10.3,14.4,21.7c-0.2,7.6-6.8,15.3-14.7,17.2c-1.1,0.3-2.3,0.3-3.5,0.3c-23.4,0-46.7,0-70.1,0
		c-11.2,0-20.9-9-21.9-20.1C40.3,71.7,48,61,59.3,59C62.5,58.5,65.7,58.6,69.2,58.5z M73.6,67.5c-1.6-0.6-2.8-1.1-4.1-1.6
		c-6.5-2.3-14-0.3-18.2,5c-4,5.2-5,10.9-2.2,17c3.1,6.6,8.6,9.7,15.7,9.7c22.3,0.1,44.7,0,67,0c7.8,0,13.6-6,13.6-13.9
		c-0.1-7.5-6.2-13.6-13.7-13.6c-1,0-2,0-3,0c-3.4-17.3-11-25.5-25.1-27.2c-5.6-0.7-10.8,0.5-15.7,3.2C79.5,50.7,75.2,58.2,73.6,67.5
		z"/>
</g>
</svg>
