<?xml version="1.0" encoding="utf-8"?>
<!-- Generator: Adobe Illustrator 22.1.0, SVG Export Plug-In . SVG Version: 6.00 Build 0)  -->
<svg version="1.1" id="Layer_1" xmlns="http://www.w3.org/2000/svg" xmlns:xlink="http://www.w3.org/1999/xlink" x="0px" y="0px"
	 viewBox="0 0 167.9 105.8" style="enable-background:new 0 0 167.9 105.8;" xml:space="preserve">
<style type="text/css">
	.st0{fill:#FFFFFF;}
	.st1{fill:none;stroke:#66CCCC;stroke-width:6;stroke-miterlimit:10;}
	.st2{fill:none;stroke:#F47621;stroke-width:5;stroke-miterlimit:10;}
</style>
<path class="st0" d="M10.5,53.9c1.4-4.9,3.3-9.4,7-13c5.7-5.6,12.3-7.6,22.1-6.5c1.9-3.3,3.6-6.8,5.8-9.8
	c5.5-7.4,12.9-11.8,21.9-13.5c0.5-0.1,0.9-0.3,1.4-0.5c3.4,0,6.8,0,10.2,0c1.3,0.4,2.6,0.7,3.8,1.1c9.4,2.6,16.6,8,21.9,16.6
	c-2.1,0.4-3.9,1-5.7,1.1c-0.8,0-1.8-0.7-2.3-1.4c-11.2-13.3-30-14.7-42.8-3.1c-4.4,4-7.1,9-8.5,14.8c-0.3,1.1-0.5,2.1-0.8,3.5
	c-6.9-3.3-13.6-4-20.1,0.6c-3.8,2.7-6.3,6.4-7.1,11.1C16,61.3,18.1,66.8,23,71.2c5,4.4,11.2,4.4,17.5,4.2c-0.3,2.3-0.5,4.2-0.7,6.2
	C26.5,83.9,14.3,76.2,11,63.5c-0.1-0.5-0.4-0.9-0.5-1.4C10.5,59.4,10.5,56.7,10.5,53.9z"/>
<path class="st0" d="M74.5,58.1c2.1-5.4,5.4-10.4,10.2-14.4c18.6-15.5,47.7-6.6,54.2,16.8c0.6,2.1,1.4,3.1,3.6,3.7
	c9.6,2.5,14.7,10.3,14.4,21.7c-0.2,7.6-6.8,15.3-14.7,17.2c-1.1,0.3-2.3,0.3-3.5,0.3c-23.4,0-46.7,0-70.1,0
	c-11.2,0-20.9-9-21.9-20.1c-1.1-12,6.6-22.7,18-24.7C67.7,58,71,58.2,74.5,58.1z M78.8,67.1c-1.6-0.6-2.8-1.1-4.1-1.6
	c-6.5-2.3-14-0.3-18.2,5c-4,5.2-5,10.9-2.2,17c3.1,6.6,8.6,9.7,15.7,9.7c22.3,0.1,44.7,0,67,0c7.8,0,13.6-6,13.6-13.9
	c-0.1-7.5-6.2-13.6-13.7-13.6c-1,0-2,0-3,0c-3.4-17.3-11-25.5-25.1-27.2c-5.6-0.7-10.8,0.5-15.7,3.2C84.8,50.2,80.5,57.7,78.8,67.1z
	"/>
</svg>
