<?xml version="1.0" encoding="utf-8"?>
<!-- Generator: Adobe Illustrator 22.1.0, SVG Export Plug-In . SVG Version: 6.00 Build 0)  -->
<svg version="1.1" id="Layer_1" xmlns="http://www.w3.org/2000/svg" xmlns:xlink="http://www.w3.org/1999/xlink" x="0px" y="0px"
	 viewBox="0 0 714.9 504.1" style="enable-background:new 0 0 714.9 504.1;" xml:space="preserve">
<style type="text/css">
	.st0{fill:#FFFFFF;}
	.st1{fill:none;stroke:#66CCCC;stroke-width:6;stroke-miterlimit:10;}
	.st2{fill:none;stroke:#F47621;stroke-width:5;stroke-miterlimit:10;}
</style>
<path class="st0" d="M414.1,144.6c1.4-4.9,3.3-9.4,7-13c5.7-5.6,12.3-7.6,22.1-6.5c1.9-3.3,3.6-6.8,5.8-9.8
	c5.5-7.4,12.9-11.8,21.9-13.5c0.5-0.1,0.9-0.3,1.4-0.5c3.4,0,6.8,0,10.2,0c1.3,0.4,2.6,0.7,3.8,1.1c9.4,2.6,16.6,8,21.9,16.6
	c-2.1,0.4-3.9,1-5.7,1.1c-0.8,0-1.8-0.7-2.3-1.4c-11.2-13.3-30-14.7-42.8-3.1c-4.4,4-7.1,9-8.5,14.8c-0.3,1.1-0.5,2.1-0.8,3.5
	c-6.9-3.3-13.6-4-20.1,0.6c-3.8,2.7-6.3,6.4-7.1,11.1c-1.1,6.5,0.9,12.1,5.9,16.5c5,4.4,11.2,4.4,17.5,4.2c-0.3,2.3-0.5,4.2-0.7,6.2
	c-13.3,2.4-25.5-5.3-28.8-18.1c-0.1-0.5-0.4-0.9-0.5-1.4C414.1,150.1,414.1,147.4,414.1,144.6z"/>
<path class="st0" d="M478.1,148.8c2.1-5.4,5.4-10.4,10.2-14.4c18.6-15.5,47.7-6.6,54.2,16.8c0.6,2.1,1.4,3.1,3.6,3.7
	c9.6,2.5,14.7,10.3,14.4,21.7c-0.2,7.6-6.8,15.3-14.7,17.2c-1.1,0.3-2.3,0.3-3.5,0.3c-23.4,0-46.7,0-70.1,0
	c-11.2,0-20.9-9-21.9-20.1c-1.1-12,6.6-22.7,18-24.7C471.3,148.7,474.6,148.9,478.1,148.8z M482.4,157.7c-1.6-0.6-2.8-1.1-4.1-1.6
	c-6.5-2.3-14-0.3-18.2,5c-4,5.2-5,10.9-2.2,17c3.1,6.6,8.6,9.7,15.7,9.7c22.3,0.1,44.7,0,67,0c7.8,0,13.6-6,13.6-13.9
	c-0.1-7.5-6.2-13.6-13.7-13.6c-1,0-2,0-3,0c-3.4-17.3-11-25.5-25.1-27.2c-5.6-0.7-10.8,0.5-15.7,3.2
	C488.4,140.9,484.1,148.4,482.4,157.7z"/>
<path class="st0" d="M356.9,71c1.4-4.9,3.3-9.4,7-13c5.7-5.6,12.3-7.6,22.1-6.5c1.9-3.3,3.6-6.8,5.8-9.8
	c5.5-7.4,12.9-11.8,21.9-13.5c0.5-0.1,0.9-0.3,1.4-0.5c3.4,0,6.8,0,10.2,0c1.3,0.4,2.6,0.7,3.8,1.1c9.4,2.6,16.6,8,21.9,16.6
	c-2.1,0.4-3.9,1-5.7,1.1c-0.8,0-1.8-0.7-2.3-1.4c-11.2-13.3-30-14.7-42.8-3.1c-4.4,4-7.1,9-8.5,14.8c-0.3,1.1-0.5,2.1-0.8,3.5
	c-6.9-3.3-13.6-4-20.1,0.6c-3.8,2.7-6.3,6.4-7.1,11.1c-1.1,6.5,0.9,12.1,5.9,16.5c5,4.4,11.2,4.4,17.5,4.2c-0.3,2.3-0.5,4.2-0.7,6.2
	c-13.3,2.4-25.5-5.3-28.8-18.1c-0.1-0.5-0.4-0.9-0.5-1.4C356.9,76.4,356.9,73.7,356.9,71z"/>
<path class="st0" d="M420.9,75.1c2.1-5.4,5.4-10.4,10.2-14.4c18.6-15.5,47.7-6.6,54.2,16.8c0.6,2.1,1.4,3.1,3.6,3.7
	c9.6,2.5,14.7,10.3,14.4,21.7c-0.2,7.6-6.8,15.3-14.7,17.2c-1.1,0.3-2.3,0.3-3.5,0.3c-23.4,0-46.7,0-70.1,0
	c-11.2,0-20.9-9-21.9-20.1c-1.1-12,6.6-22.7,18-24.7C414.1,75.1,417.3,75.2,420.9,75.1z M425.2,84.1c-1.6-0.6-2.8-1.1-4.1-1.6
	c-6.5-2.3-14-0.3-18.2,5c-4,5.2-5,10.9-2.2,17c3.1,6.6,8.6,9.7,15.7,9.7c22.3,0.1,44.7,0,67,0c7.8,0,13.6-6,13.6-13.9
	c-0.1-7.5-6.2-13.6-13.7-13.6c-1,0-2,0-3,0c-3.4-17.3-11-25.5-25.1-27.2c-5.6-0.7-10.8,0.5-15.7,3.2
	C431.2,67.2,426.9,74.8,425.2,84.1z"/>
<path class="st0" d="M396.1,222.4c2.1-5.4,5.4-10.4,10.2-14.4c18.6-15.5,47.7-6.6,54.2,16.8c0.6,2.1,1.4,3.1,3.6,3.7
	c9.6,2.5,14.7,10.3,14.4,21.7c-0.2,7.6-6.8,15.3-14.7,17.2c-1.1,0.3-2.3,0.3-3.5,0.3c-23.4,0-46.7,0-70.1,0
	c-11.2,0-20.9-9-21.9-20.1c-1.1-12,6.6-22.7,18-24.7C389.3,222.4,392.5,222.6,396.1,222.4z M400.4,231.4c-1.6-0.6-2.8-1.1-4.1-1.6
	c-6.5-2.3-14-0.3-18.2,5c-4,5.2-5,10.9-2.2,17c3.1,6.6,8.6,9.7,15.7,9.7c22.3,0.1,44.7,0,67,0c7.8,0,13.6-6,13.6-13.9
	c-0.1-7.5-6.2-13.6-13.7-13.6c-1,0-2,0-3,0c-3.4-17.3-11-25.5-25.1-27.2c-5.6-0.7-10.8,0.5-15.7,3.2
	C406.4,214.6,402.1,222.1,400.4,231.4z"/>
<path class="st0" d="M260.8,174.2c1.4-4.9,3.3-9.4,7-13c5.7-5.6,12.3-7.6,22.1-6.5c1.9-3.3,3.6-6.8,5.8-9.8
	c5.5-7.4,12.9-11.8,21.9-13.5c0.5-0.1,0.9-0.3,1.4-0.5c3.4,0,6.8,0,10.2,0c1.3,0.4,2.6,0.7,3.8,1.1c9.4,2.6,16.6,8,21.9,16.6
	c-2.1,0.4-3.9,1-5.7,1.1c-0.8,0-1.8-0.7-2.3-1.4c-11.2-13.3-30-14.7-42.8-3.1c-4.4,4-7.1,9-8.5,14.8c-0.3,1.1-0.5,2.1-0.8,3.5
	c-6.9-3.3-13.6-4-20.1,0.6c-3.8,2.7-6.3,6.4-7.1,11.1c-1.1,6.5,0.9,12.1,5.9,16.5c5,4.4,11.2,4.4,17.5,4.2c-0.3,2.3-0.5,4.2-0.7,6.2
	c-13.3,2.4-25.5-5.3-28.8-18.1c-0.1-0.5-0.4-0.9-0.5-1.4C260.8,179.7,260.8,176.9,260.8,174.2z"/>
<path class="st0" d="M324.8,178.3c2.1-5.4,5.4-10.4,10.2-14.4c18.6-15.5,47.7-6.6,54.2,16.8c0.6,2.1,1.4,3.1,3.6,3.7
	c9.6,2.5,14.7,10.3,14.4,21.7c-0.2,7.6-6.8,15.3-14.7,17.2c-1.1,0.3-2.3,0.3-3.5,0.3c-23.4,0-46.7,0-70.1,0
	c-11.2,0-20.9-9-21.9-20.1c-1.1-12,6.6-22.7,18-24.7C318,178.3,321.3,178.5,324.8,178.3z M329.1,187.3c-1.6-0.6-2.8-1.1-4.1-1.6
	c-6.5-2.3-14-0.3-18.2,5c-4,5.2-5,10.9-2.2,17c3.1,6.6,8.6,9.7,15.7,9.7c22.3,0.1,44.7,0,67,0c7.8,0,13.6-6,13.6-13.9
	c-0.1-7.5-6.2-13.6-13.7-13.6c-1,0-2,0-3,0c-3.4-17.3-11-25.5-25.1-27.2c-5.6-0.7-10.8,0.5-15.7,3.2
	C335.1,170.5,330.8,178,329.1,187.3z"/>
<path class="st0" d="M260.8,290.3c1.4-4.9,3.3-9.4,7-13c5.7-5.6,12.3-7.6,22.1-6.5c1.9-3.3,3.6-6.8,5.8-9.8
	c5.5-7.4,12.9-11.8,21.9-13.5c0.5-0.1,0.9-0.3,1.4-0.5c3.4,0,6.8,0,10.2,0c1.3,0.4,2.6,0.7,3.8,1.1c9.4,2.6,16.6,8,21.9,16.6
	c-2.1,0.4-3.9,1-5.7,1.1c-0.8,0-1.8-0.7-2.3-1.4c-11.2-13.3-30-14.7-42.8-3.1c-4.4,4-7.1,9-8.5,14.8c-0.3,1.1-0.5,2.1-0.8,3.5
	c-6.9-3.3-13.6-4-20.1,0.6c-3.8,2.7-6.3,6.4-7.1,11.1c-1.1,6.5,0.9,12.1,5.9,16.5c5,4.4,11.2,4.4,17.5,4.2c-0.3,2.3-0.5,4.2-0.7,6.2
	c-13.3,2.4-25.5-5.3-28.8-18.1c-0.1-0.5-0.4-0.9-0.5-1.4C260.8,295.7,260.8,293,260.8,290.3z"/>
<path class="st0" d="M323.8,299.1c2.1-5.4,5.4-10.4,10.2-14.4c18.6-15.5,47.7-6.6,54.2,16.8c0.6,2.1,1.4,3.1,3.6,3.7
	c9.6,2.5,14.7,10.3,14.4,21.7c-0.2,7.6-6.8,15.3-14.7,17.2c-1.1,0.3-2.3,0.3-3.5,0.3c-23.4,0-46.7,0-70.1,0
	c-11.2,0-20.9-9-21.9-20.1c-1.1-12,6.6-22.7,18-24.7C317,299.1,320.3,299.3,323.8,299.1z M328.1,308.1c-1.6-0.6-2.8-1.1-4.1-1.6
	c-6.5-2.4-14-0.3-18.2,5c-4,5.2-5,10.9-2.2,17c3.1,6.6,8.6,9.7,15.7,9.7c22.3,0.1,44.7,0,67,0c7.8,0,13.6-6,13.6-13.9
	c-0.1-7.5-6.2-13.6-13.7-13.6c-1,0-2,0-3,0c-3.4-17.3-11-25.5-25.1-27.2c-5.6-0.7-10.8,0.5-15.7,3.2
	C334.1,291.3,329.8,298.8,328.1,308.1z"/>
<path class="st0" d="M499.3,239.1c2.1-5.4,5.4-10.4,10.2-14.4c18.6-15.5,47.7-6.6,54.2,16.8c0.6,2.1,1.4,3.1,3.6,3.7
	c9.6,2.5,14.7,10.3,14.4,21.7c-0.2,7.6-6.8,15.3-14.7,17.2c-1.1,0.3-2.3,0.3-3.5,0.3c-23.4,0-46.7,0-70.1,0
	c-11.2,0-20.9-9-21.9-20.1c-1.1-12,6.6-22.7,18-24.7C492.5,239,495.7,239.2,499.3,239.1z M503.6,248.1c-1.6-0.6-2.8-1.1-4.1-1.6
	c-6.5-2.3-14-0.3-18.2,5c-4,5.2-5,10.9-2.2,17c3.1,6.6,8.6,9.7,15.7,9.7c22.3,0.1,44.7,0,67,0c7.8,0,13.6-6,13.6-13.9
	c-0.1-7.5-6.2-13.6-13.7-13.6c-1,0-2,0-3,0c-3.4-17.3-11-25.5-25.1-27.2c-5.6-0.7-10.8,0.5-15.7,3.2
	C509.6,231.2,505.3,238.7,503.6,248.1z"/>
<path class="st0" d="M623.8,265.4c2.1-5.4,5.4-10.4,10.2-14.4c18.6-15.5,47.7-6.6,54.2,16.8c0.6,2.1,1.4,3.1,3.6,3.7
	c9.6,2.5,14.7,10.3,14.4,21.7c-0.2,7.6-6.8,15.3-14.7,17.2c-1.1,0.3-2.3,0.3-3.5,0.3c-23.4,0-46.7,0-70.1,0
	c-11.2,0-20.9-9-21.9-20.1c-1.1-12,6.6-22.7,18-24.7C617,265.4,620.3,265.5,623.8,265.4z M628.1,274.4c-1.6-0.6-2.8-1.1-4.1-1.6
	c-6.5-2.3-14-0.3-18.2,5c-4,5.2-5,10.9-2.2,17c3.1,6.6,8.6,9.7,15.7,9.7c22.3,0.1,44.7,0,67,0c7.8,0,13.6-6,13.6-13.9
	c-0.1-7.5-6.2-13.6-13.7-13.6c-1,0-2,0-3,0c-3.4-17.3-11-25.5-25.1-27.2c-5.6-0.7-10.8,0.5-15.7,3.2
	C634.1,257.6,629.8,265.1,628.1,274.4z"/>
<path class="st0" d="M635.4,356.1c2.1-5.4,5.4-10.4,10.2-14.4c18.6-15.5,47.7-6.6,54.2,16.8c0.6,2.1,1.4,3.1,3.6,3.7
	c9.6,2.5,14.7,10.3,14.4,21.7c-0.2,7.6-6.8,15.3-14.7,17.2c-1.1,0.3-2.3,0.3-3.5,0.3c-23.4,0-46.7,0-70.1,0
	c-11.2,0-20.9-9-21.9-20.1c-1.1-12,6.6-22.7,18-24.7C628.6,356.1,631.8,356.3,635.4,356.1z M639.7,365.1c-1.6-0.6-2.8-1.1-4.1-1.6
	c-6.5-2.4-14-0.3-18.2,5c-4,5.2-5,10.9-2.2,17c3.1,6.6,8.6,9.7,15.7,9.7c22.3,0.1,44.7,0,67,0c7.8,0,13.6-6,13.6-13.9
	c-0.1-7.5-6.2-13.6-13.7-13.6c-1,0-2,0-3,0c-3.4-17.3-11-25.5-25.1-27.2c-5.6-0.7-10.8,0.5-15.7,3.2
	C645.7,348.3,641.4,355.8,639.7,365.1z"/>
<path class="st0" d="M545.1,311.5c2.1-5.4,5.4-10.4,10.2-14.4c18.6-15.5,47.7-6.6,54.2,16.8c0.6,2.1,1.4,3.1,3.6,3.7
	c9.6,2.5,14.7,10.3,14.4,21.7c-0.2,7.6-6.8,15.3-14.7,17.2c-1.1,0.3-2.3,0.3-3.5,0.3c-23.4,0-46.7,0-70.1,0
	c-11.2,0-20.9-9-21.9-20.1c-1.1-12,6.6-22.7,18-24.7C538.3,311.5,541.6,311.7,545.1,311.5z M549.4,320.5c-1.6-0.6-2.8-1.1-4.1-1.6
	c-6.5-2.3-14-0.3-18.2,5c-4,5.2-5,10.9-2.2,17c3.1,6.6,8.6,9.7,15.7,9.7c22.3,0.1,44.7,0,67,0c7.8,0,13.6-6,13.6-13.9
	c-0.1-7.5-6.2-13.6-13.7-13.6c-1,0-2,0-3,0c-3.4-17.3-11-25.5-25.1-27.2c-5.6-0.7-10.8,0.5-15.7,3.2
	C555.4,303.7,551.1,311.2,549.4,320.5z"/>
<path class="st0" d="M364.6,360.6c1.4-4.9,3.3-9.4,7-13c5.7-5.6,12.3-7.6,22.1-6.5c1.9-3.3,3.6-6.8,5.8-9.8
	c5.5-7.4,12.9-11.8,21.9-13.5c0.5-0.1,0.9-0.3,1.4-0.5c3.4,0,6.8,0,10.2,0c1.3,0.4,2.6,0.7,3.8,1.1c9.4,2.6,16.6,8,21.9,16.6
	c-2.1,0.4-3.9,1-5.7,1.1c-0.8,0-1.8-0.7-2.3-1.4c-11.2-13.3-30-14.7-42.8-3.1c-4.4,4-7.1,9-8.5,14.8c-0.3,1.1-0.5,2.1-0.8,3.5
	c-6.9-3.3-13.6-4-20.1,0.6c-3.8,2.7-6.3,6.4-7.1,11.1c-1.1,6.5,0.9,12.1,5.9,16.5c5,4.4,11.2,4.4,17.5,4.2c-0.3,2.3-0.5,4.2-0.7,6.2
	c-13.3,2.4-25.5-5.3-28.8-18.1c-0.1-0.5-0.4-0.9-0.5-1.4C364.6,366,364.6,363.3,364.6,360.6z"/>
<path class="st0" d="M428.6,354c2.1-5.4,5.4-10.4,10.2-14.4c18.6-15.5,47.7-6.6,54.2,16.8c0.6,2.1,1.4,3.1,3.6,3.7
	c9.6,2.5,14.7,10.3,14.4,21.7c-0.2,7.6-6.8,15.3-14.7,17.2c-1.1,0.3-2.3,0.3-3.5,0.3c-23.4,0-46.7,0-70.1,0
	c-11.2,0-20.9-9-21.9-20.1c-1.1-12,6.6-22.7,18-24.7C421.8,354,425.1,354.2,428.6,354z M432.9,363c-1.6-0.6-2.8-1.1-4.1-1.6
	c-6.5-2.4-14-0.3-18.2,5c-4,5.2-5,10.9-2.2,17c3.1,6.6,8.6,9.7,15.7,9.7c22.3,0.1,44.7,0,67,0c7.8,0,13.6-6,13.6-13.9
	c-0.1-7.5-6.2-13.6-13.7-13.6c-1,0-2,0-3,0c-3.4-17.3-11-25.5-25.1-27.2c-5.6-0.7-10.8,0.5-15.7,3.2
	C438.9,346.2,434.6,353.7,432.9,363z"/>
<path class="st0" d="M477.6,419.6c2.1-5.4,5.4-10.4,10.2-14.4c18.6-15.5,47.7-6.6,54.2,16.8c0.6,2.1,1.4,3.1,3.6,3.7
	c9.6,2.5,14.7,10.3,14.4,21.7c-0.2,7.6-6.8,15.3-14.7,17.2c-1.1,0.3-2.3,0.3-3.5,0.3c-23.4,0-46.7,0-70.1,0
	c-11.2,0-20.9-9-21.9-20.1c-1.1-12,6.6-22.7,18-24.7C470.8,419.5,474.1,419.7,477.6,419.6z M481.9,428.5c-1.6-0.6-2.8-1.1-4.1-1.6
	c-6.5-2.4-14-0.3-18.2,5c-4,5.2-5,10.9-2.2,17c3.1,6.6,8.6,9.7,15.7,9.7c22.3,0.1,44.7,0,67,0c7.8,0,13.6-6,13.6-13.9
	c-0.1-7.5-6.2-13.6-13.7-13.6c-1,0-2,0-3,0c-3.4-17.3-11-25.5-25.1-27.2c-5.6-0.7-10.8,0.5-15.7,3.2
	C487.9,411.7,483.6,419.2,481.9,428.5z"/>
<path class="st0" d="M166.7,328.8c1.4-4.9,3.3-9.4,7-13c5.7-5.6,12.3-7.6,22.1-6.5c1.9-3.3,3.6-6.8,5.8-9.8
	c5.5-7.4,12.9-11.8,21.9-13.5c0.5-0.1,0.9-0.3,1.4-0.5c3.4,0,6.8,0,10.2,0c1.3,0.4,2.6,0.7,3.8,1.1c9.4,2.6,16.6,8,21.9,16.6
	c-2.1,0.4-3.9,1-5.7,1.1c-0.8,0-1.8-0.7-2.3-1.4c-11.2-13.3-30-14.7-42.8-3.1c-4.4,4-7.1,9-8.5,14.8c-0.3,1.1-0.5,2.1-0.8,3.5
	c-6.9-3.3-13.6-4-20.1,0.6c-3.8,2.7-6.3,6.4-7.1,11.1c-1.1,6.5,0.9,12.1,5.9,16.5c5,4.4,11.2,4.4,17.5,4.2c-0.3,2.3-0.5,4.2-0.7,6.2
	c-13.3,2.4-25.5-5.3-28.8-18.1c-0.1-0.5-0.4-0.9-0.5-1.4C166.7,334.2,166.7,331.5,166.7,328.8z"/>
<path class="st0" d="M230.7,332.9c2.1-5.4,5.4-10.4,10.2-14.4c18.6-15.5,47.7-6.6,54.2,16.8c0.6,2.1,1.4,3.1,3.6,3.7
	c9.6,2.5,14.7,10.3,14.4,21.7c-0.2,7.6-6.8,15.3-14.7,17.2c-1.1,0.3-2.3,0.3-3.5,0.3c-23.4,0-46.7,0-70.1,0
	c-11.2,0-20.9-9-21.9-20.1c-1.1-12,6.6-22.7,18-24.7C224,332.9,227.2,333.1,230.7,332.9z M235.1,341.9c-1.6-0.6-2.8-1.1-4.1-1.6
	c-6.5-2.3-14-0.3-18.2,5c-4,5.2-5,10.9-2.2,17c3.1,6.6,8.6,9.7,15.7,9.7c22.3,0.1,44.7,0,67,0c7.8,0,13.6-6,13.6-13.9
	c-0.1-7.5-6.2-13.6-13.7-13.6c-1,0-2,0-3,0c-3.4-17.3-11-25.5-25.1-27.2c-5.6-0.7-10.8,0.5-15.7,3.2
	C241.1,325.1,236.8,332.6,235.1,341.9z"/>
<path class="st0" d="M124,436.5c1.4-4.9,3.3-9.4,7-13c5.7-5.6,12.3-7.6,22.1-6.5c1.9-3.3,3.6-6.8,5.8-9.8
	c5.5-7.4,12.9-11.8,21.9-13.5c0.5-0.1,0.9-0.3,1.4-0.5c3.4,0,6.8,0,10.2,0c1.3,0.4,2.6,0.7,3.8,1.1c9.4,2.6,16.6,8,21.9,16.6
	c-2.1,0.4-3.9,1-5.7,1.1c-0.8,0-1.8-0.7-2.3-1.4c-11.2-13.3-30-14.7-42.8-3.1c-4.4,4-7.1,9-8.5,14.8c-0.3,1.1-0.5,2.1-0.8,3.5
	c-6.9-3.3-13.6-4-20.1,0.6c-3.8,2.7-6.3,6.4-7.1,11.1c-1.1,6.5,0.9,12.1,5.9,16.5c5,4.4,11.2,4.4,17.5,4.2c-0.3,2.3-0.5,4.2-0.7,6.2
	c-13.3,2.4-25.5-5.3-28.8-18.1c-0.1-0.5-0.4-0.9-0.5-1.4C124,441.9,124,439.2,124,436.5z"/>
<path class="st0" d="M188,440.6c2.1-5.4,5.4-10.4,10.2-14.4c18.6-15.5,47.7-6.6,54.2,16.8c0.6,2.1,1.4,3.1,3.6,3.7
	c9.6,2.5,14.7,10.3,14.4,21.7c-0.2,7.6-6.8,15.3-14.7,17.2c-1.1,0.3-2.3,0.3-3.5,0.3c-23.4,0-46.7,0-70.1,0
	c-11.2,0-20.9-9-21.9-20.1c-1.1-12,6.6-22.7,18-24.7C181.2,440.6,184.5,440.8,188,440.6z M192.4,449.6c-1.6-0.6-2.8-1.1-4.1-1.6
	c-6.5-2.4-14-0.3-18.2,5c-4,5.2-5,10.9-2.2,17c3.1,6.6,8.6,9.7,15.7,9.7c22.3,0.1,44.7,0,67,0c7.8,0,13.6-6,13.6-13.9
	c-0.1-7.5-6.2-13.6-13.7-13.6c-1,0-2,0-3,0c-3.4-17.3-11-25.5-25.1-27.2c-5.6-0.7-10.8,0.5-15.7,3.2
	C198.3,432.8,194,440.3,192.4,449.6z"/>
<path class="st0" d="M144,203.6c1.4-4.9,3.3-9.4,7-13c5.7-5.6,12.3-7.6,22.1-6.5c1.9-3.3,3.6-6.8,5.8-9.8
	c5.5-7.4,12.9-11.8,21.9-13.5c0.5-0.1,0.9-0.3,1.4-0.5c3.4,0,6.8,0,10.2,0c1.3,0.4,2.6,0.7,3.8,1.1c9.4,2.6,16.6,8,21.9,16.6
	c-2.1,0.4-3.9,1-5.7,1.1c-0.8,0-1.8-0.7-2.3-1.4c-11.2-13.3-30-14.7-42.8-3.1c-4.4,4-7.1,9-8.5,14.8c-0.3,1.1-0.5,2.1-0.8,3.5
	c-6.9-3.3-13.6-4-20.1,0.6c-3.8,2.7-6.3,6.4-7.1,11.1c-1.1,6.5,0.9,12.1,5.9,16.5c5,4.4,11.2,4.4,17.5,4.2c-0.3,2.3-0.5,4.2-0.7,6.2
	c-13.3,2.4-25.5-5.3-28.8-18.1c-0.1-0.5-0.4-0.9-0.5-1.4C144,209.1,144,206.3,144,203.6z"/>
<path class="st0" d="M208,207.7c2.1-5.4,5.4-10.4,10.2-14.4c18.6-15.5,47.7-6.6,54.2,16.8c0.6,2.1,1.4,3.1,3.6,3.7
	c9.6,2.5,14.7,10.3,14.4,21.7c-0.2,7.6-6.8,15.3-14.7,17.2c-1.1,0.3-2.3,0.3-3.5,0.3c-23.4,0-46.7,0-70.1,0
	c-11.2,0-20.9-9-21.9-20.1c-1.1-12,6.6-22.7,18-24.7C201.2,207.7,204.5,207.9,208,207.7z M212.3,216.7c-1.6-0.6-2.8-1.1-4.1-1.6
	c-6.5-2.3-14-0.3-18.2,5c-4,5.2-5,10.9-2.2,17c3.1,6.6,8.6,9.7,15.7,9.7c22.3,0.1,44.7,0,67,0c7.8,0,13.6-6,13.6-13.9
	c-0.1-7.5-6.2-13.6-13.7-13.6c-1,0-2,0-3,0c-3.4-17.3-11-25.5-25.1-27.2c-5.6-0.7-10.8,0.5-15.7,3.2
	C218.3,199.9,214,207.4,212.3,216.7z"/>
<path class="st0" d="M110.1,84.2c1.4-4.9,3.3-9.4,7-13c5.7-5.6,12.3-7.6,22.1-6.5c1.9-3.3,3.6-6.8,5.8-9.8
	c5.5-7.4,12.9-11.8,21.9-13.5c0.5-0.1,0.9-0.3,1.4-0.5c3.4,0,6.8,0,10.2,0c1.3,0.4,2.6,0.7,3.8,1.1c9.4,2.6,16.6,8,21.9,16.6
	c-2.1,0.4-3.9,1-5.7,1.1c-0.8,0-1.8-0.7-2.3-1.4c-11.2-13.3-30-14.7-42.8-3.1c-4.4,4-7.1,9-8.5,14.8c-0.3,1.1-0.5,2.1-0.8,3.5
	c-6.9-3.3-13.6-4-20.1,0.6c-3.8,2.7-6.3,6.4-7.1,11.1c-1.1,6.5,0.9,12.1,5.9,16.5c5,4.4,11.2,4.4,17.5,4.2c-0.3,2.3-0.5,4.2-0.7,6.2
	c-13.3,2.4-25.5-5.3-28.8-18.1c-0.1-0.5-0.4-0.9-0.5-1.4C110.1,89.6,110.1,86.9,110.1,84.2z"/>
<path class="st0" d="M181.8,93.4c2.1-5.4,5.4-10.4,10.2-14.4c18.6-15.5,47.7-6.6,54.2,16.8c0.6,2.1,1.4,3.1,3.6,3.7
	c9.6,2.5,14.7,10.3,14.4,21.7c-0.2,7.6-6.8,15.3-14.7,17.2c-1.1,0.3-2.3,0.3-3.5,0.3c-23.4,0-46.7,0-70.1,0
	c-11.2,0-20.9-9-21.9-20.1c-1.1-12,6.6-22.7,18-24.7C175.1,93.4,178.3,93.6,181.8,93.4z M186.2,102.4c-1.6-0.6-2.8-1.1-4.1-1.6
	c-6.5-2.3-14-0.3-18.2,5c-4,5.2-5,10.9-2.2,17c3.1,6.6,8.6,9.7,15.7,9.7c22.3,0.1,44.7,0,67,0c7.8,0,13.6-6,13.6-13.9
	c-0.1-7.5-6.2-13.6-13.7-13.6c-1,0-2,0-3,0c-3.4-17.3-11-25.5-25.1-27.2c-5.6-0.7-10.8,0.5-15.7,3.2
	C192.2,85.6,187.9,93.1,186.2,102.4z"/>
<path class="st0" d="M257,47.7c2.1-5.4,5.4-10.4,10.2-14.4c18.6-15.5,47.7-6.6,54.2,16.8c0.6,2.1,1.4,3.1,3.6,3.7
	c9.6,2.5,14.7,10.3,14.4,21.7c-0.2,7.6-6.8,15.3-14.7,17.2c-1.1,0.3-2.3,0.3-3.5,0.3c-23.4,0-46.7,0-70.1,0
	c-11.2,0-20.9-9-21.9-20.1c-1.1-12,6.6-22.7,18-24.7C250.2,47.7,253.5,47.9,257,47.7z M261.3,56.7c-1.6-0.6-2.8-1.1-4.1-1.6
	c-6.5-2.3-14-0.3-18.2,5c-4,5.2-5,10.9-2.2,17c3.1,6.6,8.6,9.7,15.7,9.7c22.3,0.1,44.7,0,67,0c7.8,0,13.6-6,13.6-13.9
	c-0.1-7.5-6.2-13.6-13.7-13.6c-1,0-2,0-3,0c-3.4-17.3-11-25.5-25.1-27.2c-5.6-0.7-10.8,0.5-15.7,3.2C267.3,39.9,263,47.4,261.3,56.7
	z"/>
<path class="st0" d="M317.8,105.8c2.1-5.4,5.4-10.4,10.2-14.4c18.6-15.5,47.7-6.6,54.2,16.8c0.6,2.1,1.4,3.1,3.6,3.7
	c9.6,2.5,14.7,10.3,14.4,21.7c-0.2,7.6-6.8,15.3-14.7,17.2c-1.1,0.3-2.3,0.3-3.5,0.3c-23.4,0-46.7,0-70.1,0
	c-11.2,0-20.9-9-21.9-20.1c-1.1-12,6.6-22.7,18-24.7C311,105.8,314.3,106,317.8,105.8z M322.2,114.8c-1.6-0.6-2.8-1.1-4.1-1.6
	c-6.5-2.3-14-0.3-18.2,5c-4,5.2-5,10.9-2.2,17c3.1,6.6,8.6,9.7,15.7,9.7c22.3,0.1,44.7,0,67,0c7.8,0,13.6-6,13.6-13.9
	c-0.1-7.5-6.2-13.6-13.7-13.6c-1,0-2,0-3,0c-3.4-17.3-11-25.5-25.1-27.2c-5.6-0.7-10.8,0.5-15.7,3.2
	C328.1,98,323.8,105.5,322.2,114.8z"/>
<path class="st0" d="M24.6,123.5c1.4-4.9,3.3-9.4,7-13c5.7-5.6,12.3-7.6,22.1-6.5c1.9-3.3,3.6-6.8,5.8-9.8
	c5.5-7.4,12.9-11.8,21.9-13.5c0.5-0.1,0.9-0.3,1.4-0.5c3.4,0,6.8,0,10.2,0c1.3,0.4,2.6,0.7,3.8,1.1c9.4,2.6,16.6,8,21.9,16.6
	c-2.1,0.4-3.9,1-5.7,1.1c-0.8,0-1.8-0.7-2.3-1.4c-11.2-13.3-30-14.7-42.8-3.1c-4.4,4-7.1,9-8.5,14.8c-0.3,1.1-0.5,2.1-0.8,3.5
	c-6.9-3.3-13.6-4-20.1,0.6c-3.8,2.7-6.3,6.4-7.1,11.1c-1.1,6.5,0.9,12.1,5.9,16.5c5,4.4,11.2,4.4,17.5,4.2c-0.3,2.3-0.5,4.2-0.7,6.2
	c-13.3,2.4-25.5-5.3-28.8-18.1c-0.1-0.5-0.4-0.9-0.5-1.4C24.6,129,24.6,126.3,24.6,123.5z"/>
<path class="st0" d="M8.6,67.1c1.4-4.9,3.3-9.4,7-13c5.7-5.6,12.3-7.6,22.1-6.5c1.9-3.3,3.6-6.8,5.8-9.8
	c5.5-7.4,12.9-11.8,21.9-13.5c0.5-0.1,0.9-0.3,1.4-0.5c3.4,0,6.8,0,10.2,0c1.3,0.4,2.6,0.7,3.8,1.1c9.4,2.6,16.6,8,21.9,16.6
	c-2.1,0.4-3.9,1-5.7,1.1c-0.8,0-1.8-0.7-2.3-1.4c-11.2-13.3-30-14.7-42.8-3.1c-4.4,4-7.1,9-8.5,14.8c-0.3,1.1-0.5,2.1-0.8,3.5
	c-6.9-3.3-13.6-4-20.1,0.6c-3.8,2.7-6.3,6.4-7.1,11.1c-1.1,6.5,0.9,12.1,5.9,16.5c5,4.4,11.2,4.4,17.5,4.2c-0.3,2.3-0.5,4.2-0.7,6.2
	c-13.3,2.4-25.5-5.3-28.8-18.1c-0.1-0.5-0.4-0.9-0.5-1.4C8.6,72.5,8.6,69.8,8.6,67.1z"/>
<path class="st0" d="M88.6,127.7c2.1-5.4,5.4-10.4,10.2-14.4c18.6-15.5,47.7-6.6,54.2,16.8c0.6,2.1,1.4,3.1,3.6,3.7
	c9.6,2.5,14.7,10.3,14.4,21.7c-0.2,7.6-6.8,15.3-14.7,17.2c-1.1,0.3-2.3,0.3-3.5,0.3c-23.4,0-46.7,0-70.1,0
	c-11.2,0-20.9-9-21.9-20.1c-1.1-12,6.6-22.7,18-24.7C81.9,127.6,85.1,127.8,88.6,127.7z M93,136.7c-1.6-0.6-2.8-1.1-4.1-1.6
	c-6.5-2.3-14-0.3-18.2,5c-4,5.2-5,10.9-2.2,17c3.1,6.6,8.6,9.7,15.7,9.7c22.3,0.1,44.7,0,67,0c7.8,0,13.6-6,13.6-13.9
	c-0.1-7.5-6.2-13.6-13.7-13.6c-1,0-2,0-3,0c-3.4-17.3-11-25.5-25.1-27.2c-5.6-0.7-10.8,0.5-15.7,3.2C99,119.8,94.7,127.3,93,136.7z"
	/>
<path class="st0" d="M30,294.7c1.4-4.9,3.3-9.4,7-13c5.7-5.6,12.3-7.6,22.1-6.5c1.9-3.3,3.6-6.8,5.8-9.8
	c5.5-7.4,12.9-11.8,21.9-13.5c0.5-0.1,0.9-0.3,1.4-0.5c3.4,0,6.8,0,10.2,0c1.3,0.4,2.6,0.7,3.8,1.1c9.4,2.6,16.6,8,21.9,16.6
	c-2.1,0.4-3.9,1-5.7,1.1c-0.8,0-1.8-0.7-2.3-1.4c-11.2-13.3-30-14.7-42.8-3.1c-4.4,4-7.1,9-8.5,14.8c-0.3,1.1-0.5,2.1-0.8,3.5
	c-6.9-3.3-13.6-4-20.1,0.6c-3.8,2.7-6.3,6.4-7.1,11.1c-1.1,6.5,0.9,12.1,5.9,16.5c5,4.4,11.2,4.4,17.5,4.2c-0.3,2.3-0.5,4.2-0.7,6.2
	c-13.3,2.4-25.5-5.3-28.8-18.1c-0.1-0.5-0.4-0.9-0.5-1.4C30,300.1,30,297.4,30,294.7z"/>
<path class="st0" d="M94,298.8c2.1-5.4,5.4-10.4,10.2-14.4c18.6-15.5,47.7-6.6,54.2,16.8c0.6,2.1,1.4,3.1,3.6,3.7
	c9.6,2.5,14.7,10.3,14.4,21.7c-0.2,7.6-6.8,15.3-14.7,17.2c-1.1,0.3-2.3,0.3-3.5,0.3c-23.4,0-46.7,0-70.1,0
	c-11.2,0-20.9-9-21.9-20.1c-1.1-12,6.6-22.7,18-24.7C87.2,298.8,90.5,298.9,94,298.8z M98.3,307.8c-1.6-0.6-2.8-1.1-4.1-1.6
	c-6.5-2.3-14-0.3-18.2,5c-4,5.2-5,10.9-2.2,17c3.1,6.6,8.6,9.7,15.7,9.7c22.3,0.1,44.7,0,67,0c7.8,0,13.6-6,13.6-13.9
	c-0.1-7.5-6.2-13.6-13.7-13.6c-1,0-2,0-3,0c-3.4-17.3-11-25.5-25.1-27.2c-5.6-0.7-10.8,0.5-15.7,3.2
	C104.3,290.9,100,298.5,98.3,307.8z"/>
<path class="st0" d="M32.2,197.2c2.1-5.4,5.4-10.4,10.2-14.4c18.6-15.5,47.7-6.6,54.2,16.8c0.6,2.1,1.4,3.1,3.6,3.7
	c9.6,2.5,14.7,10.3,14.4,21.7c-0.2,7.6-6.8,15.3-14.7,17.2c-1.1,0.3-2.3,0.3-3.5,0.3c-23.4,0-46.7,0-70.1,0
	c-11.2,0-20.9-9-21.9-20.1c-1.1-12,6.6-22.7,18-24.7C25.4,197.1,28.7,197.3,32.2,197.2z M36.5,206.1c-1.6-0.6-2.8-1.1-4.1-1.6
	c-6.5-2.3-14-0.3-18.2,5c-4,5.2-5,10.9-2.2,17c3.1,6.6,8.6,9.7,15.7,9.7c22.3,0.1,44.7,0,67,0c7.8,0,13.6-6,13.6-13.9
	c-0.1-7.5-6.2-13.6-13.7-13.6c-1,0-2,0-3,0c-3.4-17.3-11-25.5-25.1-27.2c-5.6-0.7-10.8,0.5-15.7,3.2
	C42.5,189.3,38.2,196.8,36.5,206.1z"/>
<path class="st0" d="M-0.5,396.3c1.4-4.9,3.3-9.4,7-13c5.7-5.6,12.3-7.6,22.1-6.5c1.9-3.3,3.6-6.8,5.8-9.8
	c5.5-7.4,12.9-11.8,21.9-13.5c0.5-0.1,0.9-0.3,1.4-0.5c3.4,0,6.8,0,10.2,0c1.3,0.4,2.6,0.7,3.8,1.1c9.4,2.6,16.6,8,21.9,16.6
	c-2.1,0.4-3.9,1-5.7,1.1c-0.8,0-1.8-0.7-2.3-1.4c-11.2-13.3-30-14.7-42.8-3.1c-4.4,4-7.1,9-8.5,14.8c-0.3,1.1-0.5,2.1-0.8,3.5
	c-6.9-3.3-13.6-4-20.1,0.6c-3.8,2.7-6.3,6.4-7.1,11.1c-1.1,6.5,0.9,12.1,5.9,16.5c5,4.4,11.2,4.4,17.5,4.2c-0.3,2.3-0.5,4.2-0.7,6.2
	c-13.3,2.4-25.5-5.3-28.8-18.1c-0.1-0.5-0.4-0.9-0.5-1.4C-0.5,401.7-0.5,399-0.5,396.3z"/>
<path class="st0" d="M63.5,400.4c2.1-5.4,5.4-10.4,10.2-14.4c18.6-15.5,47.7-6.6,54.2,16.8c0.6,2.1,1.4,3.1,3.6,3.7
	c9.6,2.5,14.7,10.3,14.4,21.7c-0.2,7.6-6.8,15.3-14.7,17.2c-1.1,0.3-2.3,0.3-3.5,0.3c-23.4,0-46.7,0-70.1,0
	c-11.2,0-20.9-9-21.9-20.1c-1.1-12,6.6-22.7,18-24.7C56.7,400.4,60,400.6,63.5,400.4z M67.8,409.4c-1.6-0.6-2.8-1.1-4.1-1.6
	c-6.5-2.4-14-0.3-18.2,5c-4,5.2-5,10.9-2.2,17c3.1,6.6,8.6,9.7,15.7,9.7c22.3,0.1,44.7,0,67,0c7.8,0,13.6-6,13.6-13.9
	c-0.1-7.5-6.2-13.6-13.7-13.6c-1,0-2,0-3,0c-3.4-17.3-11-25.5-25.1-27.2c-5.6-0.7-10.8,0.5-15.7,3.2
	C73.8,392.6,69.5,400.1,67.8,409.4z"/>
<path class="st0" d="M277.1,442.7c1.4-4.9,3.3-9.4,7-13c5.7-5.6,12.3-7.6,22.1-6.5c1.9-3.3,3.6-6.8,5.8-9.8
	c5.5-7.4,12.9-11.8,21.9-13.5c0.5-0.1,0.9-0.3,1.4-0.5c3.4,0,6.8,0,10.2,0c1.3,0.4,2.6,0.7,3.8,1.1c9.4,2.6,16.6,8,21.9,16.6
	c-2.1,0.4-3.9,1-5.7,1.1c-0.8,0-1.8-0.7-2.3-1.4c-11.2-13.3-30-14.7-42.8-3.1c-4.4,4-7.1,9-8.5,14.8c-0.3,1.1-0.5,2.1-0.8,3.5
	c-6.9-3.3-13.6-4-20.1,0.6c-3.8,2.7-6.3,6.4-7.1,11.1c-1.1,6.5,0.9,12.1,5.9,16.5c5,4.4,11.2,4.4,17.5,4.2c-0.3,2.3-0.5,4.2-0.7,6.2
	c-13.3,2.4-25.5-5.3-28.8-18.1c-0.1-0.5-0.4-0.9-0.5-1.4C277.1,448.1,277.1,445.4,277.1,442.7z"/>
<path class="st0" d="M341.1,446.8c2.1-5.4,5.4-10.4,10.2-14.4c18.6-15.5,47.7-6.6,54.2,16.8c0.6,2.1,1.4,3.1,3.6,3.7
	c9.6,2.5,14.7,10.3,14.4,21.7c-0.2,7.6-6.8,15.3-14.7,17.2c-1.1,0.3-2.3,0.3-3.5,0.3c-23.4,0-46.7,0-70.1,0
	c-11.2,0-20.9-9-21.9-20.1c-1.1-12,6.6-22.7,18-24.7C334.3,446.8,337.6,447,341.1,446.8z M345.4,455.8c-1.6-0.6-2.8-1.1-4.1-1.6
	c-6.5-2.3-14-0.3-18.2,5c-4,5.2-5,10.9-2.2,17c3.1,6.6,8.6,9.7,15.7,9.7c22.3,0.1,44.7,0,67,0c7.8,0,13.6-6,13.6-13.9
	c-0.1-7.5-6.2-13.6-13.7-13.6c-1,0-2,0-3,0c-3.4-17.3-11-25.5-25.1-27.2c-5.6-0.7-10.8,0.5-15.7,3.2
	C351.4,439,347.1,446.5,345.4,455.8z"/>
<path class="st0" d="M527.8,442.7c1.4-4.9,3.3-9.4,7-13c5.7-5.6,12.3-7.6,22.1-6.5c1.9-3.3,3.6-6.8,5.8-9.8
	c5.5-7.4,12.9-11.8,21.9-13.5c0.5-0.1,0.9-0.3,1.4-0.5c3.4,0,6.8,0,10.2,0c1.3,0.4,2.6,0.7,3.8,1.1c9.4,2.6,16.6,8,21.9,16.6
	c-2.1,0.4-3.9,1-5.7,1.1c-0.8,0-1.8-0.7-2.3-1.4c-11.2-13.3-30-14.7-42.8-3.1c-4.4,4-7.1,9-8.5,14.8c-0.3,1.1-0.5,2.1-0.8,3.5
	c-6.9-3.3-13.6-4-20.1,0.6c-3.8,2.7-6.3,6.4-7.1,11.1c-1.1,6.5,0.9,12.1,5.9,16.5c5,4.4,11.2,4.4,17.5,4.2c-0.3,2.3-0.5,4.2-0.7,6.2
	c-13.3,2.4-25.5-5.3-28.8-18.1c-0.1-0.5-0.4-0.9-0.5-1.4C527.8,448.1,527.8,445.4,527.8,442.7z"/>
<path class="st0" d="M591.8,446.8c2.1-5.4,5.4-10.4,10.2-14.4c18.6-15.5,47.7-6.6,54.2,16.8c0.6,2.1,1.4,3.1,3.6,3.7
	c9.6,2.5,14.7,10.3,14.4,21.7c-0.2,7.6-6.8,15.3-14.7,17.2c-1.1,0.3-2.3,0.3-3.5,0.3c-23.4,0-46.7,0-70.1,0
	c-11.2,0-20.9-9-21.9-20.1c-1.1-12,6.6-22.7,18-24.7C585,446.8,588.3,447,591.8,446.8z M596.1,455.8c-1.6-0.6-2.8-1.1-4.1-1.6
	c-6.5-2.3-14-0.3-18.2,5c-4,5.2-5,10.9-2.2,17c3.1,6.6,8.6,9.7,15.7,9.7c22.3,0.1,44.7,0,67,0c7.8,0,13.6-6,13.6-13.9
	c-0.1-7.5-6.2-13.6-13.7-13.6c-1,0-2,0-3,0c-3.4-17.3-11-25.5-25.1-27.2c-5.6-0.7-10.8,0.5-15.7,3.2
	C602.1,439,597.8,446.5,596.1,455.8z"/>
<path class="st0" d="M568.5,188.9c1.4-4.9,3.3-9.4,7-13c5.7-5.6,12.3-7.6,22.1-6.5c1.9-3.3,3.6-6.8,5.8-9.8
	c5.5-7.4,12.9-11.8,21.9-13.5c0.5-0.1,0.9-0.3,1.4-0.5c3.4,0,6.8,0,10.2,0c1.3,0.4,2.6,0.7,3.8,1.1c9.4,2.6,16.6,8,21.9,16.6
	c-2.1,0.4-3.9,1-5.7,1.1c-0.8,0-1.8-0.7-2.3-1.4c-11.2-13.3-30-14.7-42.8-3.1c-4.4,4-7.1,9-8.5,14.8c-0.3,1.1-0.5,2.1-0.8,3.5
	c-6.9-3.3-13.6-4-20.1,0.6c-3.8,2.7-6.3,6.4-7.1,11.1c-1.1,6.5,0.9,12.1,5.9,16.5c5,4.4,11.2,4.4,17.5,4.2c-0.3,2.3-0.5,4.2-0.7,6.2
	c-13.3,2.4-25.5-5.3-28.8-18.1c-0.1-0.5-0.4-0.9-0.5-1.4C568.5,194.4,568.5,191.6,568.5,188.9z"/>
<path class="st0" d="M632.5,193c2.1-5.4,5.4-10.4,10.2-14.4c18.6-15.5,47.7-6.6,54.2,16.8c0.6,2.1,1.4,3.1,3.6,3.7
	c9.6,2.5,14.7,10.3,14.4,21.7c-0.2,7.6-6.8,15.3-14.7,17.2c-1.1,0.3-2.3,0.3-3.5,0.3c-23.4,0-46.7,0-70.1,0
	c-11.2,0-20.9-9-21.9-20.1c-1.1-12,6.6-22.7,18-24.7C625.7,193,629,193.2,632.5,193z M636.9,202c-1.6-0.6-2.8-1.1-4.1-1.6
	c-6.5-2.3-14-0.3-18.2,5c-4,5.2-5,10.9-2.2,17c3.1,6.6,8.6,9.7,15.7,9.7c22.3,0.1,44.7,0,67,0c7.8,0,13.6-6,13.6-13.9
	c-0.1-7.5-6.2-13.6-13.7-13.6c-1,0-2,0-3,0c-3.4-17.3-11-25.5-25.1-27.2c-5.6-0.7-10.8,0.5-15.7,3.2
	C642.8,185.2,638.5,192.7,636.9,202z"/>
<path class="st0" d="M541.5,83.2c1.4-4.9,3.3-9.4,7-13c5.7-5.6,12.3-7.6,22.1-6.5c1.9-3.3,3.6-6.8,5.8-9.8
	c5.5-7.4,12.9-11.8,21.9-13.5c0.5-0.1,0.9-0.3,1.4-0.5c3.4,0,6.8,0,10.2,0c1.3,0.4,2.6,0.7,3.8,1.1c9.4,2.6,16.6,8,21.9,16.6
	c-2.1,0.4-3.9,1-5.7,1.1c-0.8,0-1.8-0.7-2.3-1.4c-11.2-13.3-30-14.7-42.8-3.1c-4.4,4-7.1,9-8.5,14.8c-0.3,1.1-0.5,2.1-0.8,3.5
	c-6.9-3.3-13.6-4-20.1,0.6c-3.8,2.7-6.3,6.4-7.1,11.1c-1.1,6.5,0.9,12.1,5.9,16.5c5,4.4,11.2,4.4,17.5,4.2c-0.3,2.3-0.5,4.2-0.7,6.2
	c-13.3,2.4-25.5-5.3-28.8-18.1c-0.1-0.5-0.4-0.9-0.5-1.4C541.5,88.6,541.5,85.9,541.5,83.2z"/>
<path class="st0" d="M605.5,87.3c2.1-5.4,5.4-10.4,10.2-14.4c18.6-15.5,47.7-6.6,54.2,16.8c0.6,2.1,1.4,3.1,3.6,3.7
	c9.6,2.5,14.7,10.3,14.4,21.7c-0.2,7.6-6.8,15.3-14.7,17.2c-1.1,0.3-2.3,0.3-3.5,0.3c-23.4,0-46.7,0-70.1,0
	c-11.2,0-20.9-9-21.9-20.1c-1.1-12,6.6-22.7,18-24.7C598.7,87.3,602,87.4,605.5,87.3z M609.8,96.3c-1.6-0.6-2.8-1.1-4.1-1.6
	c-6.5-2.3-14-0.3-18.2,5c-4,5.2-5,10.9-2.2,17c3.1,6.6,8.6,9.7,15.7,9.7c22.3,0.1,44.7,0,67,0c7.8,0,13.6-6,13.6-13.9
	c-0.1-7.5-6.2-13.6-13.7-13.6c-1,0-2,0-3,0c-3.4-17.3-11-25.5-25.1-27.2c-5.6-0.7-10.8,0.5-15.7,3.2C615.8,79.4,611.5,87,609.8,96.3
	z"/>
</svg>
