<?xml version="1.0" encoding="utf-8"?>
<!-- Generator: Adobe Illustrator 22.1.0, SVG Export Plug-In . SVG Version: 6.00 Build 0)  -->
<svg version="1.1" id="Layer_1" xmlns="http://www.w3.org/2000/svg" xmlns:xlink="http://www.w3.org/1999/xlink" x="0px" y="0px"
	 viewBox="0 0 216 216" style="enable-background:new 0 0 216 216;" xml:space="preserve">
<style type="text/css">
	.st0{fill:#FFFFFF;}
	.st1{fill:none;stroke:#66CCCC;stroke-width:6;stroke-miterlimit:10;}
	.st2{fill:none;stroke:#F47621;stroke-width:5;stroke-miterlimit:10;}
</style>
<g>
	<path class="st2" d="M108.3,68.6C86.6,68.6,69,86.2,69,107.9c0,21.7,17.6,39.3,39.3,39.4c21.7,0,39.4-17.6,39.4-39.4
		C147.7,86.2,130,68.6,108.3,68.6z M102.3,31.4c0,5.5,0,11,0,16.5c0,0.5,0,1,0.1,1.5c0.4,3.5,3.9,5.8,7.3,5c2.9-0.7,4.7-3,4.7-6.1
		c0-11.2,0-22.5,0-33.7c0-0.3,0-0.7-0.1-1c-0.4-2.9-2.8-5.2-5.7-5.3c-3.5-0.1-6.3,2.6-6.3,6.3C102.3,20.3,102.3,25.8,102.3,31.4z
		 M31.8,114c5,0,10,0,15.1,0c0.9,0,1.8,0,2.7-0.1c3.6-0.4,6-3.8,5.2-7.3c-0.7-2.9-3.1-4.7-6.4-4.7c-11.1,0-22.1,0-33.2,0
		c-0.5,0-1,0-1.4,0.1c-2.8,0.4-5,2.8-5.1,5.6c-0.2,3.6,2.5,6.4,6.3,6.4C20.6,114,26.2,114,31.8,114z M184.7,114c5.5,0,11,0,16.5,0
		c0.5,0,1,0,1.5-0.1c3.3-0.4,5.7-3.7,5.1-7c-0.6-3.1-3-5-6.4-5c-11.1,0-22.2,0-33.3,0c-0.4,0-0.9,0-1.3,0.1c-2.4,0.3-4.3,2.1-5,4.4
		c-1,3.9,1.8,7.6,6,7.6C173.5,114,179.1,114,184.7,114z M102.3,184.5c0,5.5,0,10.9,0,16.4c0,0.6,0,1.1,0.1,1.7
		c0.5,3.2,3.7,5.5,6.9,4.9c3.1-0.6,5.1-3,5.1-6.4c0-11.1,0-22.2,0-33.3c0-0.4,0-0.8-0.1-1.2c-0.4-3.5-3.6-5.9-7.1-5.2
		c-3,0.6-4.9,3-4.9,6.3C102.3,173.3,102.3,178.9,102.3,184.5z M36.1,41.5c0,2.1,0.8,3.6,2.1,4.9C46,54.2,53.9,62.1,61.8,70
		c0.2,0.2,0.4,0.4,0.6,0.6c3.3,2.9,8.4,1.4,9.7-2.7c0.8-2.4,0.1-4.6-1.7-6.3c-7.9-7.9-15.8-15.8-23.8-23.8c-0.3-0.3-0.6-0.6-0.9-0.8
		c-2-1.4-4.1-1.6-6.3-0.5C37.3,37.5,36.2,39.4,36.1,41.5z M180.7,41.7c-0.3-1-0.5-2.1-1.1-3c-2-3.5-6.6-4-9.6-1
		c-7.9,7.9-15.8,15.8-23.8,23.8c-0.2,0.2-0.4,0.4-0.6,0.7c-1.6,2-1.8,4.9-0.4,7c1.4,2.2,4.1,3.3,6.5,2.6c1-0.3,2.1-0.9,2.9-1.7
		c8-8,16-16,24-24C179.9,45,180.5,43.5,180.7,41.7z M180.5,174.5c0-2.2-0.8-3.7-2.1-4.9c-6.9-6.9-13.8-13.8-20.7-20.6
		c-1.1-1.1-2.2-2.2-3.3-3.3c-1.9-1.9-4.8-2.2-7.1-1c-3.6,2-4.3,6.7-1.3,9.7c5.3,5.4,10.7,10.7,16,16c2.7,2.7,5.3,5.4,8,8
		c1.8,1.8,4.4,2.3,6.6,1.3C179.2,178.6,180.4,176.7,180.5,174.5z M41.8,180.2c2.1,0,3.6-0.7,4.8-2c7.9-7.9,15.8-15.8,23.7-23.7
		c0.3-0.3,0.6-0.6,0.8-1c2.7-3.6,0.5-8.8-3.9-9.5c-2.1-0.3-3.8,0.3-5.3,1.8c-8,8-15.9,15.9-23.9,23.9c-0.2,0.2-0.5,0.5-0.7,0.8
		c-1.4,2-1.7,4.1-0.7,6.3C37.8,179,39.7,180.1,41.8,180.2z"/>
	<path class="st2" d="M102.3,31.4c0-5.6,0-11.2,0-16.8c0-3.7,2.7-6.4,6.3-6.3c2.9,0.1,5.4,2.3,5.7,5.3c0,0.3,0.1,0.7,0.1,1
		c0,11.2,0,22.5,0,33.7c0,3.1-1.8,5.5-4.7,6.1c-3.4,0.8-6.9-1.6-7.3-5c-0.1-0.5-0.1-1-0.1-1.5C102.3,42.4,102.3,36.9,102.3,31.4z"/>
</g>
</svg>
