<?xml version="1.0" encoding="utf-8"?>
<!-- Generator: Adobe Illustrator 22.1.0, SVG Export Plug-In . SVG Version: 6.00 Build 0)  -->
<svg version="1.1" id="Layer_1" xmlns="http://www.w3.org/2000/svg" xmlns:xlink="http://www.w3.org/1999/xlink" x="0px" y="0px"
	 viewBox="0 0 140.5 140.5" style="enable-background:new 0 0 140.5 140.5;" xml:space="preserve">
<style type="text/css">
	.st0{fill:#FFFFFF;}
	.st1{fill:none;stroke:#66CCCC;stroke-width:6;stroke-miterlimit:10;}
	.st2{fill:none;stroke:#F4BF7A;stroke-width:2;stroke-miterlimit:10;}
	.st3{fill:none;stroke:#000000;stroke-width:4;stroke-miterlimit:10;}
	.st4{fill:#CACACA;}
	.st5{fill:#66CCCC;}
	.st6{fill:none;stroke:#F4BF7A;stroke-width:3;stroke-miterlimit:10;}
</style>
<g>
	<path class="st6" d="M15.7,76.8H5.5c-2.2,0-4-1.8-4-4c0-2.2,1.8-4,4-4h10.2c2.2,0,4,1.8,4,4C19.7,75,17.9,76.8,15.7,76.8
		 M25.2,124.4c-1,0-2-0.4-2.8-1.2c-1.6-1.6-1.6-4.1,0-5.7l7.2-7.2c1.6-1.6,4.1-1.6,5.7,0c1.6,1.6,1.6,4.1,0,5.7l-7.2,7.2
		C27.2,124,26.2,124.4,25.2,124.4z M72.6,19.8c-2.2,0-4-1.8-4-4l0-10.2c0-2.2,1.8-4,4-4c2.2,0,4,1.8,4,4l0,10.2
		C76.6,18,74.8,19.8,72.6,19.8z M112.9,36.4c-1,0-2-0.4-2.8-1.2c-1.6-1.6-1.6-4.1,0-5.7l7.2-7.3c1.6-1.6,4.1-1.6,5.7,0
		c1.6,1.6,1.6,4.1,0,5.7l-7.2,7.2C114.9,36.1,113.9,36.4,112.9,36.4z M44.8,105.4c-1.1,0-2.1-0.4-2.8-1.2
		C33.7,96,29.2,84.9,29.2,73.2c0-24.2,19.7-44,43.9-44c11.7,0,22.7,4.6,31,12.9c0.8,0.8,1.2,1.8,1.2,2.8c0,1.1-0.4,2.1-1.2,2.8
		l-56.4,56.5C46.9,105,45.9,105.4,44.8,105.4z M55.9,112.5h0.3c2.3,0,4.2,1.9,4.3,4.3v0.3c0,2.3-1.9,4.3-4.3,4.3h-0.3
		c-2.3,0-4.3-1.9-4.3-4.3v-0.3C51.6,114.4,53.6,112.5,55.9,112.5z M68.1,100.3h0.3c2.3,0,4.3,1.9,4.3,4.3v0.3c0,2.3-1.9,4.3-4.3,4.3
		h-0.3c-2.3,0-4.3-1.9-4.3-4.3v-0.3C63.8,102.2,65.7,100.3,68.1,100.3z M80.2,88.1h0.3c2.3,0,4.3,1.9,4.3,4.3v0.3
		c0,2.3-1.9,4.3-4.3,4.3h-0.3c-2.3,0-4.3-1.9-4.3-4.3v-0.3C76,90,77.9,88.1,80.2,88.1z M92.4,75.9h0.3c2.3,0,4.3,1.9,4.3,4.3v0.3
		c0,2.3-1.9,4.3-4.2,4.3h-0.3c-2.3,0-4.2-1.9-4.3-4.3v-0.3C88.2,77.8,90.1,75.9,92.4,75.9z M104.6,63.7h0.3c2.3,0,4.3,1.9,4.3,4.3
		v0.3c0,2.3-1.9,4.3-4.3,4.3h-0.3c-2.3,0-4.2-1.9-4.3-4.3v-0.3C100.3,65.6,102.2,63.7,104.6,63.7z M67.8,124.4h0.3
		c2.3,0,4.3,1.9,4.3,4.3v0.3c0,2.3-1.9,4.3-4.3,4.3h-0.3c-2.3,0-4.3-1.9-4.3-4.3v-0.3C63.5,126.3,65.5,124.4,67.8,124.4z M80,112.2
		h0.3c2.3,0,4.3,1.9,4.3,4.3v0.3c0,2.3-1.9,4.3-4.2,4.3H80c-2.3,0-4.3-1.9-4.3-4.3v-0.3C75.7,114.1,77.6,112.2,80,112.2z M92.1,100
		h0.3c2.3,0,4.3,1.9,4.3,4.3v0.3c0,2.3-1.9,4.3-4.2,4.3h-0.3c-2.3,0-4.2-1.9-4.3-4.3v-0.3C87.9,101.9,89.8,100,92.1,100z
		 M104.3,87.8h0.3c2.3,0,4.3,1.9,4.3,4.3v0.3c0,2.3-1.9,4.3-4.3,4.3h-0.3c-2.3,0-4.3-1.9-4.3-4.3v-0.3
		C100.1,89.7,102,87.8,104.3,87.8z M116.5,75.6h0.3c2.3,0,4.3,1.9,4.3,4.3v0.3c0,2.3-1.9,4.3-4.3,4.3h-0.3c-2.3,0-4.3-1.9-4.3-4.3
		v-0.3C112.2,77.5,114.1,75.6,116.5,75.6z M85.8,130.2h0.3c2.3,0,4.3,1.9,4.3,4.3v0.3c0,2.3-1.9,4.3-4.2,4.3h-0.3
		c-2.3,0-4.2-1.9-4.2-4.3v-0.3C81.5,132.1,83.4,130.2,85.8,130.2z M98,118h0.3c2.3,0,4.2,1.9,4.3,4.3v0.3c0,2.3-1.9,4.3-4.3,4.3H98
		c-2.3,0-4.3-1.9-4.3-4.3v-0.3C93.7,119.9,95.6,118,98,118z M110.1,105.8h0.3c2.3,0,4.3,1.9,4.3,4.3v0.3c0,2.3-1.9,4.3-4.3,4.3h-0.3
		c-2.3,0-4.3-1.9-4.3-4.3v-0.3C105.9,107.7,107.8,105.8,110.1,105.8z M122.3,93.6h0.3c2.3,0,4.3,1.9,4.3,4.3v0.3
		c0,2.3-1.9,4.3-4.2,4.3h-0.3c-2.3,0-4.2-1.9-4.3-4.3v-0.3C118.1,95.5,120,93.6,122.3,93.6z M109.9,129.9h0.3c2.3,0,4.3,1.9,4.3,4.3
		v0.3c0,2.3-1.9,4.3-4.3,4.3h-0.3c-2.3,0-4.3-1.9-4.3-4.3v-0.3C105.6,131.8,107.5,129.9,109.9,129.9z M122,117.7h0.3
		c2.3,0,4.3,1.9,4.3,4.3v0.3c0,2.3-1.9,4.3-4.2,4.3H122c-2.3,0-4.3-1.9-4.3-4.3V122C117.8,119.6,119.7,117.7,122,117.7z M116.8,51.5
		h0.3c2.3,0,4.3,1.9,4.3,4.3V56c0,2.3-1.9,4.3-4.2,4.3h-0.3c-2.3,0-4.2-1.9-4.3-4.3v-0.3C112.5,53.4,114.4,51.5,116.8,51.5z
		 M128.7,63.4h0.3c2.3,0,4.3,1.9,4.3,4.3V68c0,2.3-1.9,4.3-4.3,4.3h-0.3c-2.3,0-4.3-1.9-4.3-4.3v-0.3
		C124.4,65.3,126.3,63.4,128.7,63.4z M134.5,81.4h0.3c2.3,0,4.3,1.9,4.3,4.3V86c0,2.3-1.9,4.3-4.3,4.3h-0.3c-2.3,0-4.3-1.9-4.3-4.3
		v-0.3C130.2,83.3,132.1,81.4,134.5,81.4z M134.2,105.5h0.3c2.3,0,4.3,1.9,4.3,4.3v0.3c0,2.3-1.9,4.3-4.3,4.3h-0.3
		c-2.3,0-4.3-1.9-4.3-4.3v-0.3C130,107.4,131.9,105.5,134.2,105.5z M32.4,36.5c-1,0-2.1-0.4-2.8-1.2l-7.2-7.2
		c-1.6-1.6-1.6-4.1,0-5.7c1.6-1.6,4.1-1.6,5.7,0l7.2,7.2c1.6,1.6,1.6,4.1,0,5.7C34.4,36.1,33.4,36.5,32.4,36.5z"/>
</g>
</svg>
