<?xml version="1.0" encoding="utf-8"?>
<!-- Generator: Adobe Illustrator 22.1.0, SVG Export Plug-In . SVG Version: 6.00 Build 0)  -->
<svg version="1.1" id="Layer_1" xmlns="http://www.w3.org/2000/svg" xmlns:xlink="http://www.w3.org/1999/xlink" x="0px" y="0px"
	 viewBox="0 0 360 360" style="enable-background:new 0 0 360 360;" xml:space="preserve">
<style type="text/css">
	.st0{fill:#009966;}
	.st1{fill:#009966;stroke:#FFFFFF;stroke-width:15;stroke-miterlimit:10;}
	.st2{fill:#009966;stroke:#FFFFFF;stroke-width:2;stroke-miterlimit:10;}
	.st3{fill:#FFFFFF;stroke:#009966;stroke-width:4;stroke-miterlimit:10;}
	.st4{fill:#000C17;stroke:#FFFFFF;stroke-width:4;stroke-miterlimit:10;}
</style>
<line class="st3" x1="118.4" y1="78.7" x2="175.2" y2="146.7"/>
<line class="st4" x1="141.8" y1="112.9" x2="198.6" y2="180.8"/>
<line class="st3" x1="107.4" y1="128.7" x2="164.2" y2="196.7"/>
<line class="st4" x1="130.8" y1="162.9" x2="187.6" y2="230.8"/>
<line class="st3" x1="158.4" y1="158.7" x2="215.2" y2="226.7"/>
<line class="st4" x1="181.8" y1="192.9" x2="238.6" y2="260.8"/>
<line class="st3" x1="199.4" y1="128.7" x2="256.2" y2="196.7"/>
<line class="st4" x1="222.8" y1="162.9" x2="279.6" y2="230.8"/>
<line class="st3" x1="118.4" y1="48.7" x2="175.2" y2="116.7"/>
<line class="st4" x1="141.8" y1="82.9" x2="198.6" y2="150.8"/>
<line class="st3" x1="208.4" y1="179.7" x2="265.2" y2="247.7"/>
<line class="st4" x1="231.8" y1="213.9" x2="288.6" y2="281.8"/>
<line class="st3" x1="157.4" y1="209.7" x2="214.2" y2="277.7"/>
<line class="st4" x1="180.8" y1="243.9" x2="237.6" y2="311.8"/>
<line class="st3" x1="76.4" y1="149.7" x2="133.2" y2="217.7"/>
<line class="st4" x1="99.8" y1="183.9" x2="156.6" y2="251.8"/>
<line class="st3" x1="56.4" y1="88.7" x2="113.2" y2="156.7"/>
<line class="st4" x1="79.8" y1="122.9" x2="136.6" y2="190.8"/>
</svg>
