<?xml version="1.0" encoding="utf-8"?>
<!-- Generator: Adobe Illustrator 22.1.0, SVG Export Plug-In . SVG Version: 6.00 Build 0)  -->
<svg version="1.1" id="Layer_1" xmlns="http://www.w3.org/2000/svg" xmlns:xlink="http://www.w3.org/1999/xlink" x="0px" y="0px"
	 viewBox="0 0 336.7 358.5" style="enable-background:new 0 0 336.7 358.5;" xml:space="preserve">
<style type="text/css">
	.st0{fill:#009966;}
	.st1{fill:#009966;stroke:#FFFFFF;stroke-width:15;stroke-miterlimit:10;}
	.st2{fill:#009966;stroke:#FFFFFF;stroke-width:2;stroke-miterlimit:10;}
	.st3{fill:none;stroke:#FFFFFF;stroke-width:8;stroke-miterlimit:10;}
	.st4{fill:#3399FF;stroke:#3399FF;stroke-width:8;stroke-miterlimit:10;}
</style>
<circle class="st3" cx="103.9" cy="79.7" r="42.6"/>
<ellipse class="st3" cx="168.1" cy="60.7" rx="64.2" ry="56.5"/>
<circle class="st3" cx="253.6" cy="108.1" r="47.4"/>
<path class="st4" d="M112.7,149.8c-1.1,4.6-3,7.6-4.5,9.4c-1.4,1.7-2.3,2.2-2.9,4c-0.9,2.7-0.5,6.4,1.8,8.6c1.3,1.3,3.2,1.7,7.1,2.4
	c5.4,1,8.1,1.5,10.2,0c2.2-1.5,2.9-4.2,3.1-5.1c0.2-0.8,0.7-2.8,0-4.9c-0.2-0.7-0.7-1.7-4.1-4.9c-3.7-3.4-4-3.1-4.9-4.5
	c-0.8-1.4-0.5-1.7-2.1-6.3c-1.2-3.6-1.6-3.9-1.9-3.9C114.2,144.6,113.5,145.2,112.7,149.8z"/>
<path class="st4" d="M152.9,157.5c-1.1,4.6-3,7.6-4.5,9.4c-1.4,1.7-2.3,2.2-2.9,4c-0.9,2.7-0.5,6.4,1.8,8.6c1.3,1.3,3.2,1.7,7.1,2.4
	c5.4,1,8.1,1.5,10.2,0c2.2-1.5,2.9-4.2,3.1-5.1c0.2-0.8,0.7-2.8,0-4.9c-0.2-0.7-0.7-1.7-4.1-4.9c-3.7-3.4-4-3.1-4.9-4.5
	c-0.8-1.4-0.5-1.7-2.1-6.3c-1.2-3.6-1.6-3.9-1.9-3.9C154.4,152.3,153.7,153,152.9,157.5z"/>
<path class="st4" d="M124.2,204c-1.1,4.6-3,7.6-4.5,9.4c-1.4,1.7-2.3,2.2-2.9,4c-0.9,2.7-0.5,6.4,1.8,8.6c1.3,1.3,3.2,1.7,7.1,2.4
	c5.4,1,8.1,1.5,10.2,0c2.2-1.5,2.9-4.2,3.1-5.1c0.2-0.8,0.7-2.8,0-4.9c-0.2-0.7-0.7-1.7-4.1-4.9c-3.7-3.4-4-3.1-4.9-4.5
	c-0.8-1.4-0.5-1.7-2.1-6.3c-1.2-3.6-1.6-3.9-1.9-3.9C125.7,198.8,125,199.5,124.2,204z"/>
<path class="st4" d="M191,204c-1.1,4.6-3,7.6-4.5,9.4c-1.4,1.7-2.3,2.2-2.9,4c-0.9,2.7-0.5,6.4,1.8,8.6c1.3,1.3,3.2,1.7,7.1,2.4
	c5.4,1,8.1,1.5,10.2,0c2.2-1.5,2.9-4.2,3.1-5.1c0.2-0.8,0.7-2.8,0-4.9c-0.2-0.7-0.7-1.7-4.1-4.9c-3.7-3.4-4-3.1-4.9-4.5
	c-0.8-1.4-0.5-1.7-2.1-6.3c-1.2-3.6-1.6-3.9-1.9-3.9C192.5,198.8,191.8,199.5,191,204z"/>
</svg>
