<?xml version="1.0" encoding="utf-8"?>
<!-- Generator: Adobe Illustrator 22.1.0, SVG Export Plug-In . SVG Version: 6.00 Build 0)  -->
<svg version="1.1" id="Layer_1" xmlns="http://www.w3.org/2000/svg" xmlns:xlink="http://www.w3.org/1999/xlink" x="0px" y="0px"
	 viewBox="0 0 851.8 1309.2" style="enable-background:new 0 0 851.8 1309.2;" xml:space="preserve">
<style type="text/css">
	.st0{fill:#FFFFFF;}
	.st1{fill:none;stroke:#66CCCC;stroke-width:6;stroke-miterlimit:10;}
	.st2{fill:none;stroke:#F4BF7A;stroke-width:2;stroke-miterlimit:10;}
	.st3{fill:none;stroke:#000000;stroke-width:4;stroke-miterlimit:10;}
	.st4{fill:#CACACA;}
	.st5{fill:#66CCCC;}
</style>
<path class="st0" d="M638.3,418.7c7.9-20.2,20.3-39.2,38.5-54.4c70.3-58.6,180.1-24.8,204.3,63.3c2.2,7.9,5.1,11.8,13.5,14
	c36.3,9.5,55.4,39,54.4,82c-0.6,28.5-25.6,57.9-55.5,65c-4.3,1-8.9,1.3-13.3,1.3c-88.1,0.1-176.3,0.1-264.4,0
	c-42.1,0-78.9-33.9-82.7-76c-4.1-45.2,25.1-85.8,67.8-93.2C612.8,418.6,625,419.3,638.3,418.7z M654.7,452.7
	c-5.9-2.3-10.6-4.2-15.4-5.9c-24.5-8.9-52.6-1.3-68.5,19c-15.3,19.6-18.8,41.3-8.3,64c11.6,25,32.5,36.5,59.4,36.6
	c84.3,0.3,168.6,0.2,252.8,0.1c29.3,0,51.4-22.8,51.1-52.3c-0.3-28.2-23.3-51.2-51.6-51.4c-3.8,0-7.6,0-11.2,0
	c-12.9-65.3-41.4-96.2-94.7-102.8c-21-2.6-40.8,2-59.3,12C677.2,389.2,661,417.5,654.7,452.7z"/>
<path class="st0" d="M103.5,673c7.9-20.2,20.3-39.2,38.5-54.4c70.3-58.6,180.1-24.8,204.3,63.3c2.2,7.9,5.1,11.8,13.5,14
	c36.3,9.5,55.4,39,54.4,82c-0.6,28.5-25.6,57.9-55.5,65c-4.3,1-8.9,1.3-13.3,1.3c-88.1,0.1-176.3,0.1-264.4,0
	c-42.1,0-78.9-33.9-82.7-76C-5.8,723,23.4,682.3,66.1,675C77.9,672.9,90.2,673.6,103.5,673z M119.8,706.9
	c-5.9-2.3-10.6-4.2-15.4-5.9c-24.5-8.9-52.6-1.3-68.5,19c-15.3,19.6-18.8,41.3-8.3,64c11.6,25,32.5,36.5,59.4,36.6
	c84.3,0.3,168.6,0.2,252.8,0.1c29.3,0,51.4-22.8,51.1-52.3c-0.3-28.2-23.3-51.2-51.6-51.4c-3.8,0-7.6,0-11.2,0
	c-12.9-65.3-41.4-96.2-94.7-102.8c-21-2.6-40.8,2-59.3,12C142.4,643.5,126.2,671.8,119.8,706.9z"/>
<path class="st0" d="M171.3,466.6c7.9-20.2,20.3-39.2,38.5-54.4c70.3-58.6,180.1-24.8,204.3,63.3c2.2,7.9,5.1,11.8,13.5,14
	c36.3,9.5,55.4,39,54.4,82c-0.6,28.5-25.6,57.9-55.5,65c-4.3,1-8.9,1.3-13.3,1.3c-88.1,0.1-176.3,0.1-264.4,0
	c-42.1,0-78.9-33.9-82.7-76c-4.1-45.2,25.1-85.8,67.8-93.2C145.7,466.5,158,467.2,171.3,466.6z M187.6,500.5
	c-5.9-2.3-10.6-4.2-15.4-5.9c-24.5-8.9-52.6-1.3-68.5,19c-15.3,19.6-18.8,41.3-8.3,64c11.6,25,32.5,36.5,59.4,36.6
	c84.3,0.3,168.6,0.2,252.8,0.1c29.3,0,51.4-22.8,51.1-52.3c-0.3-28.2-23.3-51.2-51.6-51.4c-3.8,0-7.6,0-11.2,0
	c-12.9-65.3-41.4-96.2-94.7-102.8c-21-2.6-40.8,2-59.3,12C210.2,437,194,465.3,187.6,500.5z"/>
<path class="st0" d="M117.7,1109.7c7.9-20.2,20.3-39.2,38.5-54.4c70.3-58.6,180.1-24.8,204.3,63.3c2.2,7.9,5.1,11.8,13.5,14
	c36.3,9.5,55.4,39,54.4,82c-0.6,28.5-25.6,57.9-55.5,65c-4.3,1-8.9,1.3-13.3,1.3c-88.1,0.1-176.3,0.1-264.4,0
	c-42.1,0-78.9-33.9-82.7-76c-4.1-45.2,25.1-85.8,67.8-93.2C92.1,1109.6,104.4,1110.3,117.7,1109.7z M134,1143.7
	c-5.9-2.3-10.6-4.2-15.4-5.9c-24.5-8.9-52.6-1.3-68.5,19c-15.3,19.6-18.8,41.3-8.3,64c11.6,25,32.5,36.5,59.4,36.6
	c84.3,0.3,168.6,0.2,252.8,0.1c29.3,0,51.4-22.8,51.1-52.3c-0.3-28.2-23.3-51.2-51.6-51.4c-3.8,0-7.6,0-11.2,0
	c-12.9-65.3-41.4-96.2-94.7-102.8c-21-2.6-40.8,2-59.3,12C156.6,1080.2,140.4,1108.5,134,1143.7z"/>
<path class="st0" d="M507.8,1112.1c7.9-20.2,20.3-39.2,38.5-54.4c70.3-58.6,180.1-24.8,204.3,63.3c2.2,7.9,5.1,11.8,13.5,14
	c36.3,9.5,55.4,39,54.4,82c-0.6,28.5-25.6,57.9-55.5,65c-4.3,1-8.9,1.3-13.3,1.3c-88.1,0.1-176.3,0.1-264.4,0
	c-42.1,0-78.9-33.9-82.7-76c-4.1-45.2,25.1-85.8,67.8-93.2C482.2,1112,494.5,1112.7,507.8,1112.1z M524.1,1146
	c-5.9-2.3-10.6-4.2-15.4-5.9c-24.5-8.9-52.6-1.3-68.5,19c-15.3,19.6-18.8,41.3-8.3,64c11.6,25,32.5,36.5,59.4,36.6
	c84.3,0.3,168.6,0.2,252.8,0.1c29.3,0,51.4-22.8,51.1-52.3c-0.3-28.2-23.3-51.2-51.6-51.4c-3.8,0-7.6,0-11.2,0
	c-12.9-65.3-41.4-96.2-94.7-102.8c-21-2.6-40.8,2-59.3,12C546.7,1082.5,530.5,1110.8,524.1,1146z"/>
<path class="st0" d="M524.9,894.2c7.9-20.2,20.3-39.2,38.5-54.4c70.3-58.6,180.1-24.8,204.3,63.3c2.2,7.9,5.1,11.8,13.5,14
	c36.3,9.5,55.4,39,54.4,82c-0.6,28.5-25.6,57.9-55.5,65c-4.3,1-8.9,1.3-13.3,1.3c-88.1,0.1-176.3,0.1-264.4,0
	c-42.1,0-78.9-33.9-82.7-76c-4.1-45.2,25.1-85.8,67.8-93.2C499.3,894.1,511.6,894.8,524.9,894.2z M541.2,928.1
	c-5.9-2.3-10.6-4.2-15.4-5.9c-24.5-8.9-52.6-1.3-68.5,19c-15.3,19.6-18.8,41.3-8.3,64c11.6,25,32.5,36.5,59.4,36.6
	c84.3,0.3,168.6,0.2,252.8,0.1c29.3,0,51.4-22.8,51.1-52.3c-0.3-28.2-23.3-51.2-51.6-51.4c-3.8,0-7.6,0-11.2,0
	c-12.9-65.3-41.4-96.2-94.7-102.8c-21-2.6-40.8,2-59.3,12C563.8,864.7,547.6,893,541.2,928.1z"/>
<path class="st0" d="M524.9,657.9c7.9-20.2,20.3-39.2,38.5-54.4c70.3-58.6,180.1-24.8,204.3,63.3c2.2,7.9,5.1,11.8,13.5,14
	c36.3,9.5,55.4,39,54.4,82c-0.6,28.5-25.6,57.9-55.5,65c-4.3,1-8.9,1.3-13.3,1.3c-88.1,0.1-176.3,0.1-264.4,0
	c-42.1,0-78.9-33.9-82.7-76c-4.1-45.2,25.1-85.8,67.8-93.2C499.3,657.8,511.6,658.5,524.9,657.9z M541.2,691.8
	c-5.9-2.3-10.6-4.2-15.4-5.9c-24.5-8.9-52.6-1.3-68.5,19c-15.3,19.6-18.8,41.3-8.3,64c11.6,25,32.5,36.5,59.4,36.6
	c84.3,0.3,168.6,0.2,252.8,0.1c29.3,0,51.4-22.8,51.1-52.3c-0.3-28.2-23.3-51.2-51.6-51.4c-3.8,0-7.6,0-11.2,0
	c-12.9-65.3-41.4-96.2-94.7-102.8c-21-2.6-40.8,2-59.3,12C563.8,628.4,547.6,656.7,541.2,691.8z"/>
<path class="st0" d="M14.2,404.7c5.6-19.8,13.4-38.3,28.5-53.1c23.5-23,50.4-30.9,90.1-26.5c7.9-13.6,14.6-27.7,23.7-40.1
	c22.3-30.3,52.7-48.2,89.6-55.3c1.9-0.4,3.8-1.4,5.6-2c13.9,0,27.8,0,41.7,0c5.2,1.5,10.5,2.9,15.7,4.4c38.5,10.6,68,32.9,89.3,67.8
	c-8.5,1.7-15.8,4-23.3,4.4c-3.1,0.2-7.2-3-9.5-5.8C320,244,243.1,238.3,190.9,285.9c-17.9,16.3-29,36.9-34.8,60.4
	c-1.1,4.3-2.1,8.7-3.4,14.4c-28.1-13.5-55.7-16.4-82.2,2.3c-15.7,11.1-25.8,26.3-29,45.2c-4.6,26.7,3.7,49.4,24,67.3
	c20.4,18,45.6,18.1,71.6,17.1c-1.1,9.2-2,17.3-3,25.2c-54.4,9.6-104.1-21.8-117.7-74c-0.5-1.9-1.5-3.7-2.2-5.6
	C14.2,427,14.2,415.9,14.2,404.7z"/>
<path class="st0" d="M248,916.2c5.6-19.8,13.4-38.3,28.5-53.1c23.5-23,50.4-30.9,90.1-26.5c7.9-13.6,14.6-27.7,23.7-40.1
	c22.3-30.3,52.7-48.2,89.6-55.3c1.9-0.4,3.8-1.4,5.6-2c13.9,0,27.8,0,41.7,0c5.2,1.5,10.5,2.9,15.7,4.4c38.5,10.6,68,32.9,89.3,67.8
	c-8.5,1.7-15.8,4-23.3,4.4c-3.1,0.2-7.2-3-9.5-5.8c-45.6-54.4-122.5-60.2-174.7-12.6c-17.9,16.3-29,36.9-34.8,60.4
	c-1.1,4.3-2.1,8.7-3.4,14.4c-28.1-13.5-55.7-16.4-82.2,2.3c-15.7,11.1-25.8,26.3-29,45.2c-4.6,26.7,3.7,49.4,24,67.3
	c20.4,18,45.6,18.1,71.6,17.1c-1.1,9.2-2,17.3-3,25.2c-54.4,9.6-104.1-21.8-117.7-74c-0.5-1.9-1.5-3.7-2.2-5.6
	C248,938.4,248,927.3,248,916.2z"/>
<path class="st0" d="M393.2,401.9c5.6-19.8,13.4-38.3,28.5-53.1c23.5-23,50.4-30.9,90.1-26.5c7.9-13.6,14.6-27.7,23.7-40.1
	c22.3-30.3,52.7-48.2,89.6-55.3c1.9-0.4,3.8-1.4,5.6-2c13.9,0,27.8,0,41.7,0c5.2,1.5,10.5,2.9,15.7,4.4c38.5,10.6,68,32.9,89.3,67.8
	c-8.5,1.7-15.8,4-23.3,4.4c-3.1,0.2-7.2-3-9.5-5.8C699,241.1,622,235.4,569.9,283c-17.9,16.3-29,36.9-34.8,60.4
	c-1.1,4.3-2.1,8.7-3.4,14.4c-28.1-13.5-55.7-16.4-82.2,2.3c-15.7,11.1-25.8,26.3-29,45.2c-4.6,26.7,3.7,49.4,24,67.3
	c20.4,18,45.6,18.1,71.6,17.1c-1.1,9.2-2,17.3-3,25.2c-54.4,9.6-104.1-21.8-117.7-74c-0.5-1.9-1.5-3.7-2.2-5.6
	C393.2,424.1,393.2,413,393.2,401.9z"/>
<path class="st0" d="M-1.9,1007.9c5.6-19.8,13.4-38.3,28.5-53.1c23.5-23,50.4-30.9,90.1-26.5c7.9-13.6,14.6-27.7,23.7-40.1
	c22.3-30.3,52.7-48.2,89.6-55.3c1.9-0.4,3.8-1.4,5.6-2c13.9,0,27.8,0,41.7,0c5.2,1.5,10.5,2.9,15.7,4.4c38.5,10.6,68,32.9,89.3,67.8
	c-8.5,1.7-15.8,4-23.3,4.4c-3.1,0.2-7.2-3-9.5-5.8c-45.6-54.4-122.5-60.2-174.7-12.6c-17.9,16.3-29,36.9-34.8,60.4
	c-1.1,4.3-2.1,8.7-3.4,14.4c-28.1-13.5-55.7-16.4-82.2,2.3c-15.7,11.1-25.8,26.3-29,45.2c-4.6,26.7,3.7,49.4,24,67.3
	c20.4,18,45.6,18.1,71.6,17.1c-1.1,9.2-2,17.3-3,25.2c-54.4,9.6-104.1-21.8-117.7-74c-0.5-1.9-1.5-3.7-2.2-5.6
	C-1.9,1030.1-1.9,1019-1.9,1007.9z"/>
</svg>
