<?xml version="1.0" encoding="utf-8"?>
<!-- Generator: Adobe Illustrator 22.1.0, SVG Export Plug-In . SVG Version: 6.00 Build 0)  -->
<svg version="1.1" id="Layer_1" xmlns="http://www.w3.org/2000/svg" xmlns:xlink="http://www.w3.org/1999/xlink" x="0px" y="0px"
	 viewBox="0 0 551 339.3" style="enable-background:new 0 0 551 339.3;" xml:space="preserve">
<style type="text/css">
	.st0{fill:#FFFFFF;}
	.st1{fill:#DBDBDB;}
	.st2{fill:none;stroke:#66CCCC;stroke-width:6;stroke-miterlimit:10;}
	.st3{fill:none;stroke:#F47621;stroke-width:5;stroke-miterlimit:10;}
</style>
<rect x="-96.6" y="-1.1" class="st1" width="693" height="435.8"/>
<path class="st0" d="M307.5,106.6c1.4-4.9,3.3-9.4,7-13c5.7-5.6,12.3-7.6,22.1-6.5c1.9-3.3,3.6-6.8,5.8-9.8
	c5.5-7.4,12.9-11.8,21.9-13.5c0.5-0.1,0.9-0.3,1.4-0.5c3.4,0,6.8,0,10.2,0c1.3,0.4,2.6,0.7,3.8,1.1c9.4,2.6,16.6,8,21.9,16.6
	c-2.1,0.4-3.9,1-5.7,1.1c-0.8,0-1.8-0.7-2.3-1.4c-11.2-13.3-30-14.7-42.8-3.1c-4.4,4-7.1,9-8.5,14.8c-0.3,1.1-0.5,2.1-0.8,3.5
	c-6.9-3.3-13.6-4-20.1,0.6c-3.8,2.7-6.3,6.4-7.1,11.1c-1.1,6.5,0.9,12.1,5.9,16.5c5,4.4,11.2,4.4,17.5,4.2c-0.3,2.3-0.5,4.2-0.7,6.2
	c-13.3,2.4-25.5-5.3-28.8-18.1c-0.1-0.5-0.4-0.9-0.5-1.4C307.5,112.1,307.5,109.4,307.5,106.6z"/>
<path class="st0" d="M371.5,110.7c2.1-5.4,5.4-10.4,10.2-14.4c18.6-15.5,47.7-6.6,54.2,16.8c0.6,2.1,1.4,3.1,3.6,3.7
	c9.6,2.5,14.7,10.3,14.4,21.7c-0.2,7.6-6.8,15.3-14.7,17.2c-1.1,0.3-2.3,0.3-3.5,0.3c-23.4,0-46.7,0-70.1,0
	c-11.2,0-20.9-9-21.9-20.1c-1.1-12,6.6-22.7,18-24.7C364.8,110.7,368,110.9,371.5,110.7z M375.9,119.7c-1.6-0.6-2.8-1.1-4.1-1.6
	c-6.5-2.3-14-0.3-18.2,5c-4,5.2-5,10.9-2.2,17c3.1,6.6,8.6,9.7,15.7,9.7c22.3,0.1,44.7,0,67,0c7.8,0,13.6-6,13.6-13.9
	c-0.1-7.5-6.2-13.6-13.7-13.6c-1,0-2,0-3,0c-3.4-17.3-11-25.5-25.1-27.2c-5.6-0.7-10.8,0.5-15.7,3.2
	C381.8,102.9,377.5,110.4,375.9,119.7z"/>
<path class="st0" d="M250.3,32.9c1.4-4.9,3.3-9.4,7-13c5.7-5.6,12.3-7.6,22.1-6.5c1.9-3.3,3.6-6.8,5.8-9.8
	c5.5-7.4,12.9-11.8,21.9-13.5c0.5-0.1,0.9-0.3,1.4-0.5c3.4,0,6.8,0,10.2,0c1.3,0.4,2.6,0.7,3.8,1.1c9.4,2.6,16.6,8,21.9,16.6
	c-2.1,0.4-3.9,1-5.7,1.1c-0.8,0-1.8-0.7-2.3-1.4c-11.2-13.3-30-14.7-42.8-3.1c-4.4,4-7.1,9-8.5,14.8c-0.3,1.1-0.5,2.1-0.8,3.5
	c-6.9-3.3-13.6-4-20.1,0.6c-3.8,2.7-6.3,6.4-7.1,11.1c-1.1,6.5,0.9,12.1,5.9,16.5c5,4.4,11.2,4.4,17.5,4.2c-0.3,2.3-0.5,4.2-0.7,6.2
	c-13.3,2.4-25.5-5.3-28.8-18.1c-0.1-0.5-0.4-0.9-0.5-1.4C250.3,38.4,250.3,35.7,250.3,32.9z"/>
<path class="st0" d="M314.3,37.1c2.1-5.4,5.4-10.4,10.2-14.4c18.6-15.5,47.7-6.6,54.2,16.8c0.6,2.1,1.4,3.1,3.6,3.7
	c9.6,2.5,14.7,10.3,14.4,21.7c-0.2,7.6-6.8,15.3-14.7,17.2c-1.1,0.3-2.3,0.3-3.5,0.3c-23.4,0-46.7,0-70.1,0
	c-11.2,0-20.9-9-21.9-20.1c-1.1-12,6.6-22.7,18-24.7C307.5,37,310.8,37.2,314.3,37.1z M318.6,46.1c-1.6-0.6-2.8-1.1-4.1-1.6
	c-6.5-2.3-14-0.3-18.2,5c-4,5.2-5,10.9-2.2,17c3.1,6.6,8.6,9.7,15.7,9.7c22.3,0.1,44.7,0,67,0c7.8,0,13.6-6,13.6-13.9
	c-0.1-7.5-6.2-13.6-13.7-13.6c-1,0-2,0-3,0c-3.4-17.3-11-25.5-25.1-27.2c-5.6-0.7-10.8,0.5-15.7,3.2
	C324.6,29.2,320.3,36.7,318.6,46.1z"/>
<path class="st0" d="M279.7,184.4c2.1-5.4,5.4-10.4,10.2-14.4c18.6-15.5,47.7-6.6,54.2,16.8c0.6,2.1,1.4,3.1,3.6,3.7
	c9.6,2.5,14.7,10.3,14.4,21.7c-0.2,7.6-6.8,15.3-14.7,17.2c-1.1,0.3-2.3,0.3-3.5,0.3c-23.4,0-46.7,0-70.1,0
	c-11.2,0-20.9-9-21.9-20.1c-1.1-12,6.6-22.7,18-24.7C273,184.4,276.2,184.6,279.7,184.4z M284.1,193.4c-1.6-0.6-2.8-1.1-4.1-1.6
	c-6.5-2.3-14-0.3-18.2,5c-4,5.2-5,10.9-2.2,17c3.1,6.6,8.6,9.7,15.7,9.7c22.3,0.1,44.7,0,67,0c7.8,0,13.6-6,13.6-13.9
	c-0.1-7.5-6.2-13.6-13.7-13.6c-1,0-2,0-3,0c-3.4-17.3-11-25.5-25.1-27.2c-5.6-0.7-10.8,0.5-15.7,3.2
	C290,176.6,285.8,184.1,284.1,193.4z"/>
<path class="st0" d="M154.2,136.2c1.4-4.9,3.3-9.4,7-13c5.7-5.6,12.3-7.6,22.1-6.5c1.9-3.3,3.6-6.8,5.8-9.8
	c5.5-7.4,12.9-11.8,21.9-13.5c0.5-0.1,0.9-0.3,1.4-0.5c3.4,0,6.8,0,10.2,0c1.3,0.4,2.6,0.7,3.8,1.1c9.4,2.6,16.6,8,21.9,16.6
	c-2.1,0.4-3.9,1-5.7,1.1c-0.8,0-1.8-0.7-2.3-1.4c-11.2-13.3-30-14.7-42.8-3.1c-4.4,4-7.1,9-8.5,14.8c-0.3,1.1-0.5,2.1-0.8,3.5
	c-6.9-3.3-13.6-4-20.1,0.6c-3.8,2.7-6.3,6.4-7.1,11.1c-1.1,6.5,0.9,12.1,5.9,16.5c5,4.4,11.2,4.4,17.5,4.2c-0.3,2.3-0.5,4.2-0.7,6.2
	c-13.3,2.4-25.5-5.3-28.8-18.1c-0.1-0.5-0.4-0.9-0.5-1.4C154.2,141.7,154.2,138.9,154.2,136.2z"/>
<path class="st0" d="M218.2,140.3c2.1-5.4,5.4-10.4,10.2-14.4c18.6-15.5,47.7-6.6,54.2,16.8c0.6,2.1,1.4,3.1,3.6,3.7
	c9.6,2.5,14.7,10.3,14.4,21.7c-0.2,7.6-6.8,15.3-14.7,17.2c-1.1,0.3-2.3,0.3-3.5,0.3c-23.4,0-46.7,0-70.1,0
	c-11.2,0-20.9-9-21.9-20.1c-1.1-12,6.6-22.7,18-24.7C211.4,140.3,214.7,140.5,218.2,140.3z M222.6,149.3c-1.6-0.6-2.8-1.1-4.1-1.6
	c-6.5-2.3-14-0.3-18.2,5c-4,5.2-5,10.9-2.2,17c3.1,6.6,8.6,9.7,15.7,9.7c22.3,0.1,44.7,0,67,0c7.8,0,13.6-6,13.6-13.9
	c-0.1-7.5-6.2-13.6-13.7-13.6c-1,0-2,0-3,0c-3.4-17.3-11-25.5-25.1-27.2c-5.6-0.7-10.8,0.5-15.7,3.2
	C228.5,132.5,224.2,140,222.6,149.3z"/>
<path class="st0" d="M154.2,252.3c1.4-4.9,3.3-9.4,7-13c5.7-5.6,12.3-7.6,22.1-6.5c1.9-3.3,3.6-6.8,5.8-9.8
	c5.5-7.4,12.9-11.8,21.9-13.5c0.5-0.1,0.9-0.3,1.4-0.5c3.4,0,6.8,0,10.2,0c1.3,0.4,2.6,0.7,3.8,1.1c9.4,2.6,16.6,8,21.9,16.6
	c-2.1,0.4-3.9,1-5.7,1.1c-0.8,0-1.8-0.7-2.3-1.4c-11.2-13.3-30-14.7-42.8-3.1c-4.4,4-7.1,9-8.5,14.8c-0.3,1.1-0.5,2.1-0.8,3.5
	c-6.9-3.3-13.6-4-20.1,0.6c-3.8,2.7-6.3,6.4-7.1,11.1c-1.1,6.5,0.9,12.1,5.9,16.5c5,4.4,11.2,4.4,17.5,4.2c-0.3,2.3-0.5,4.2-0.7,6.2
	c-13.3,2.4-25.5-5.3-28.8-18.1c-0.1-0.5-0.4-0.9-0.5-1.4C154.2,257.7,154.2,255,154.2,252.3z"/>
<path class="st0" d="M218.2,256.4c2.1-5.4,5.4-10.4,10.2-14.4c18.6-15.5,47.7-6.6,54.2,16.8c0.6,2.1,1.4,3.1,3.6,3.7
	c9.6,2.5,14.7,10.3,14.4,21.7c-0.2,7.6-6.8,15.3-14.7,17.2c-1.1,0.3-2.3,0.3-3.5,0.3c-23.4,0-46.7,0-70.1,0
	c-11.2,0-20.9-9-21.9-20.1c-1.1-12,6.6-22.7,18-24.7C211.4,256.4,214.7,256.5,218.2,256.4z M222.6,265.4c-1.6-0.6-2.8-1.1-4.1-1.6
	c-6.5-2.3-14-0.3-18.2,5c-4,5.2-5,10.9-2.2,17c3.1,6.6,8.6,9.7,15.7,9.7c22.3,0.1,44.7,0,67,0c7.8,0,13.6-6,13.6-13.9
	c-0.1-7.5-6.2-13.6-13.7-13.6c-1,0-2,0-3,0c-3.4-17.3-11-25.5-25.1-27.2c-5.6-0.7-10.8,0.5-15.7,3.2
	C228.5,248.5,224.2,256,222.6,265.4z"/>
<path class="st0" d="M392.7,201.1c2.1-5.4,5.4-10.4,10.2-14.4c18.6-15.5,47.7-6.6,54.2,16.8c0.6,2.1,1.4,3.1,3.6,3.7
	c9.6,2.5,14.7,10.3,14.4,21.7c-0.2,7.6-6.8,15.3-14.7,17.2c-1.1,0.3-2.3,0.3-3.5,0.3c-23.4,0-46.7,0-70.1,0
	c-11.2,0-20.9-9-21.9-20.1c-1.1-12,6.6-22.7,18-24.7C385.9,201,389.2,201.2,392.7,201.1z M397,210c-1.6-0.6-2.8-1.1-4.1-1.6
	c-6.5-2.3-14-0.3-18.2,5c-4,5.2-5,10.9-2.2,17c3.1,6.6,8.6,9.7,15.7,9.7c22.3,0.1,44.7,0,67,0c7.8,0,13.6-6,13.6-13.9
	c-0.1-7.5-6.2-13.6-13.7-13.6c-1,0-2,0-3,0c-3.4-17.3-11-25.5-25.1-27.2c-5.6-0.7-10.8,0.5-15.7,3.2C403,193.2,398.7,200.7,397,210z
	"/>
<path class="st0" d="M526,316c2.1-5.4,5.4-10.4,10.2-14.4c18.6-15.5,47.7-6.6,54.2,16.8c0.6,2.1,1.4,3.1,3.6,3.7
	c9.6,2.5,14.7,10.3,14.4,21.7c-0.2,7.6-6.8,15.3-14.7,17.2c-1.1,0.3-2.3,0.3-3.5,0.3c-23.4,0-46.7,0-70.1,0
	c-11.2,0-20.9-9-21.9-20.1c-1.1-12,6.6-22.7,18-24.7C519.2,316,522.4,316.1,526,316z M530.3,325c-1.6-0.6-2.8-1.1-4.1-1.6
	c-6.5-2.4-14-0.3-18.2,5c-4,5.2-5,10.9-2.2,17c3.1,6.6,8.6,9.7,15.7,9.7c22.3,0.1,44.7,0,67,0c7.8,0,13.6-6,13.6-13.9
	c-0.1-7.5-6.2-13.6-13.7-13.6c-1,0-2,0-3,0c-3.4-17.3-11-25.5-25.1-27.2c-5.6-0.7-10.8,0.5-15.7,3.2
	C536.3,308.2,532,315.7,530.3,325z"/>
<path class="st0" d="M438.6,273.5c2.1-5.4,5.4-10.4,10.2-14.4c18.6-15.5,47.7-6.6,54.2,16.8c0.6,2.1,1.4,3.1,3.6,3.7
	c9.6,2.5,14.7,10.3,14.4,21.7c-0.2,7.6-6.8,15.3-14.7,17.2c-1.1,0.3-2.3,0.3-3.5,0.3c-23.4,0-46.7,0-70.1,0
	c-11.2,0-20.9-9-21.9-20.1c-1.1-12,6.6-22.7,18-24.7C431.8,273.5,435,273.6,438.6,273.5z M442.9,282.5c-1.6-0.6-2.8-1.1-4.1-1.6
	c-6.5-2.3-14-0.3-18.2,5c-4,5.2-5,10.9-2.2,17c3.1,6.6,8.6,9.7,15.7,9.7c22.3,0.1,44.7,0,67,0c7.8,0,13.6-6,13.6-13.9
	c-0.1-7.5-6.2-13.6-13.7-13.6c-1,0-2,0-3,0c-3.4-17.3-11-25.5-25.1-27.2c-5.6-0.7-10.8,0.5-15.7,3.2
	C448.9,265.7,444.6,273.2,442.9,282.5z"/>
<path class="st0" d="M258,311.9c1.4-4.9,3.3-9.4,7-13c5.7-5.6,12.3-7.6,22.1-6.5c1.9-3.3,3.6-6.8,5.8-9.8
	c5.5-7.4,12.9-11.8,21.9-13.5c0.5-0.1,0.9-0.3,1.4-0.5c3.4,0,6.8,0,10.2,0c1.3,0.4,2.6,0.7,3.8,1.1c9.4,2.6,16.6,8,21.9,16.6
	c-2.1,0.4-3.9,1-5.7,1.1c-0.8,0-1.8-0.7-2.3-1.4c-11.2-13.3-30-14.7-42.8-3.1c-4.4,4-7.1,9-8.5,14.8c-0.3,1.1-0.5,2.1-0.8,3.5
	c-6.9-3.3-13.6-4-20.1,0.6c-3.8,2.7-6.3,6.4-7.1,11.1c-1.1,6.5,0.9,12.1,5.9,16.5c5,4.4,11.2,4.4,17.5,4.2c-0.3,2.3-0.5,4.2-0.7,6.2
	c-13.3,2.4-25.5-5.3-28.8-18.1c-0.1-0.5-0.4-0.9-0.5-1.4C258,317.3,258,314.6,258,311.9z"/>
<path class="st0" d="M322,316c2.1-5.4,5.4-10.4,10.2-14.4c18.6-15.5,47.7-6.6,54.2,16.8c0.6,2.1,1.4,3.1,3.6,3.7
	c9.6,2.5,14.7,10.3,14.4,21.7c-0.2,7.6-6.8,15.3-14.7,17.2c-1.1,0.3-2.3,0.3-3.5,0.3c-23.4,0-46.7,0-70.1,0
	c-11.2,0-20.9-9-21.9-20.1c-1.1-12,6.6-22.7,18-24.7C315.3,316,318.5,316.1,322,316z M326.4,325c-1.6-0.6-2.8-1.1-4.1-1.6
	c-6.5-2.4-14-0.3-18.2,5c-4,5.2-5,10.9-2.2,17c3.1,6.6,8.6,9.7,15.7,9.7c22.3,0.1,44.7,0,67,0c7.8,0,13.6-6,13.6-13.9
	c-0.1-7.5-6.2-13.6-13.7-13.6c-1,0-2,0-3,0c-3.4-17.3-11-25.5-25.1-27.2c-5.6-0.7-10.8,0.5-15.7,3.2
	C332.4,308.2,328.1,315.7,326.4,325z"/>
<path class="st0" d="M60.2,290.8c1.4-4.9,3.3-9.4,7-13c5.7-5.6,12.3-7.6,22.1-6.5c1.9-3.3,3.6-6.8,5.8-9.8
	c5.5-7.4,12.9-11.8,21.9-13.5c0.5-0.1,0.9-0.3,1.4-0.5c3.4,0,6.8,0,10.2,0c1.3,0.4,2.6,0.7,3.8,1.1c9.4,2.6,16.6,8,21.9,16.6
	c-2.1,0.4-3.9,1-5.7,1.1c-0.8,0-1.8-0.7-2.3-1.4c-11.2-13.3-30-14.7-42.8-3.1c-4.4,4-7.1,9-8.5,14.8c-0.3,1.1-0.5,2.1-0.8,3.5
	c-6.9-3.3-13.6-4-20.1,0.6c-3.8,2.7-6.3,6.4-7.1,11.1c-1.1,6.5,0.9,12.1,5.9,16.5c5,4.4,11.2,4.4,17.5,4.2c-0.3,2.3-0.5,4.2-0.7,6.2
	c-13.3,2.4-25.5-5.3-28.8-18.1c-0.1-0.5-0.4-0.9-0.5-1.4C60.2,296.2,60.2,293.5,60.2,290.8z"/>
<path class="st0" d="M124.2,294.9c2.1-5.4,5.4-10.4,10.2-14.4c18.6-15.5,47.7-6.6,54.2,16.8c0.6,2.1,1.4,3.1,3.6,3.7
	c9.6,2.5,14.7,10.3,14.4,21.7c-0.2,7.6-6.8,15.3-14.7,17.2c-1.1,0.3-2.3,0.3-3.5,0.3c-23.4,0-46.7,0-70.1,0
	c-11.2,0-20.9-9-21.9-20.1c-1.1-12,6.6-22.7,18-24.7C117.4,294.9,120.7,295,124.2,294.9z M128.5,303.9c-1.6-0.6-2.8-1.1-4.1-1.6
	c-6.5-2.3-14-0.3-18.2,5c-4,5.2-5,10.9-2.2,17c3.1,6.6,8.6,9.7,15.7,9.7c22.3,0.1,44.7,0,67,0c7.8,0,13.6-6,13.6-13.9
	c-0.1-7.5-6.2-13.6-13.7-13.6c-1,0-2,0-3,0c-3.4-17.3-11-25.5-25.1-27.2c-5.6-0.7-10.8,0.5-15.7,3.2
	C134.5,287.1,130.2,294.6,128.5,303.9z"/>
<path class="st0" d="M37.4,165.6c1.4-4.9,3.3-9.4,7-13c5.7-5.6,12.3-7.6,22.1-6.5c1.9-3.3,3.6-6.8,5.8-9.8
	c5.5-7.4,12.9-11.8,21.9-13.5c0.5-0.1,0.9-0.3,1.4-0.5c3.4,0,6.8,0,10.2,0c1.3,0.4,2.6,0.7,3.8,1.1c9.4,2.6,16.6,8,21.9,16.6
	c-2.1,0.4-3.9,1-5.7,1.1c-0.8,0-1.8-0.7-2.3-1.4c-11.2-13.3-30-14.7-42.8-3.1c-4.4,4-7.1,9-8.5,14.8c-0.3,1.1-0.5,2.1-0.8,3.5
	c-6.9-3.3-13.6-4-20.1,0.6c-3.8,2.7-6.3,6.4-7.1,11.1C43,173,45,178.5,50,182.9c5,4.4,11.2,4.4,17.5,4.2c-0.3,2.3-0.5,4.2-0.7,6.2
	c-13.3,2.4-25.5-5.3-28.8-18.1c-0.1-0.5-0.4-0.9-0.5-1.4C37.4,171.1,37.4,168.3,37.4,165.6z"/>
<path class="st0" d="M101.5,169.7c2.1-5.4,5.4-10.4,10.2-14.4c18.6-15.5,47.7-6.6,54.2,16.8c0.6,2.1,1.4,3.1,3.6,3.7
	c9.6,2.5,14.7,10.3,14.4,21.7c-0.2,7.6-6.8,15.3-14.7,17.2c-1.1,0.3-2.3,0.3-3.5,0.3c-23.4,0-46.7,0-70.1,0
	c-11.2,0-20.9-9-21.9-20.1c-1.1-12,6.6-22.7,18-24.7C94.7,169.7,97.9,169.9,101.5,169.7z M105.8,178.7c-1.6-0.6-2.8-1.1-4.1-1.6
	c-6.5-2.3-14-0.3-18.2,5c-4,5.2-5,10.9-2.2,17c3.1,6.6,8.6,9.7,15.7,9.7c22.3,0.1,44.7,0,67,0c7.8,0,13.6-6,13.6-13.9
	c-0.1-7.5-6.2-13.6-13.7-13.6c-1,0-2,0-3,0c-3.4-17.3-11-25.5-25.1-27.2c-5.6-0.7-10.8,0.5-15.7,3.2
	C111.8,161.9,107.5,169.4,105.8,178.7z"/>
<path class="st0" d="M11.3,51.3c1.4-4.9,3.3-9.4,7-13c5.7-5.6,12.3-7.6,22.1-6.5c1.9-3.3,3.6-6.8,5.8-9.8C51.6,14.6,59,10.2,68,8.5
	C68.5,8.4,69,8.1,69.4,8c3.4,0,6.8,0,10.2,0c1.3,0.4,2.6,0.7,3.8,1.1c9.4,2.6,16.6,8,21.9,16.6c-2.1,0.4-3.9,1-5.7,1.1
	c-0.8,0-1.8-0.7-2.3-1.4c-11.2-13.3-30-14.7-42.8-3.1c-4.4,4-7.1,9-8.5,14.8c-0.3,1.1-0.5,2.1-0.8,3.5c-6.9-3.3-13.6-4-20.1,0.6
	c-3.8,2.7-6.3,6.4-7.1,11.1c-1.1,6.5,0.9,12.1,5.9,16.5c5,4.4,11.2,4.4,17.5,4.2c-0.3,2.3-0.5,4.2-0.7,6.2
	c-13.3,2.4-25.5-5.3-28.8-18.1c-0.1-0.5-0.4-0.9-0.5-1.4C11.3,56.8,11.3,54,11.3,51.3z"/>
<path class="st0" d="M75.3,55.4C77.4,50.1,80.7,45,85.5,41c18.6-15.5,47.7-6.6,54.2,16.8c0.6,2.1,1.4,3.1,3.6,3.7
	c9.6,2.5,14.7,10.3,14.4,21.7c-0.2,7.6-6.8,15.3-14.7,17.2c-1.1,0.3-2.3,0.3-3.5,0.3c-23.4,0-46.7,0-70.1,0
	c-11.2,0-20.9-9-21.9-20.1c-1.1-12,6.6-22.7,18-24.7C68.5,55.4,71.8,55.6,75.3,55.4z M79.6,64.4c-1.6-0.6-2.8-1.1-4.1-1.6
	c-6.5-2.3-14-0.3-18.2,5c-4,5.2-5,10.9-2.2,17c3.1,6.6,8.6,9.7,15.7,9.7c22.3,0.1,44.7,0,67,0c7.8,0,13.6-6,13.6-13.9
	c-0.1-7.5-6.2-13.6-13.7-13.6c-1,0-2,0-3,0c-3.4-17.3-11-25.5-25.1-27.2c-5.6-0.7-10.8,0.5-15.7,3.2C85.6,47.6,81.3,55.1,79.6,64.4z
	"/>
<path class="st0" d="M150.5,9.7c2.1-5.4,5.4-10.4,10.2-14.4c18.6-15.5,47.7-6.6,54.2,16.8c0.6,2.1,1.4,3.1,3.6,3.7
	c9.6,2.5,14.7,10.3,14.4,21.7c-0.2,7.6-6.8,15.3-14.7,17.2c-1.1,0.3-2.3,0.3-3.5,0.3c-23.4,0-46.7,0-70.1,0
	c-11.2,0-20.9-9-21.9-20.1c-1.1-12,6.6-22.7,18-24.7C143.7,9.7,146.9,9.9,150.5,9.7z M154.8,18.7c-1.6-0.6-2.8-1.1-4.1-1.6
	c-6.5-2.3-14-0.3-18.2,5c-4,5.2-5,10.9-2.2,17c3.1,6.6,8.6,9.7,15.7,9.7c22.3,0.1,44.7,0,67,0c7.8,0,13.6-6,13.6-13.9
	c-0.1-7.5-6.2-13.6-13.7-13.6c-1,0-2,0-3,0c-3.4-17.3-11-25.5-25.1-27.2c-5.6-0.7-10.8,0.5-15.7,3.2C160.8,1.9,156.5,9.4,154.8,18.7
	z"/>
<path class="st0" d="M211.3,67.8c2.1-5.4,5.4-10.4,10.2-14.4c18.6-15.5,47.7-6.6,54.2,16.8c0.6,2.1,1.4,3.1,3.6,3.7
	c9.6,2.5,14.7,10.3,14.4,21.7c-0.2,7.6-6.8,15.3-14.7,17.2c-1.1,0.3-2.3,0.3-3.5,0.3c-23.4,0-46.7,0-70.1,0
	c-11.2,0-20.9-9-21.9-20.1c-1.1-12,6.6-22.7,18-24.7C204.5,67.8,207.7,68,211.3,67.8z M215.6,76.8c-1.6-0.6-2.8-1.1-4.1-1.6
	c-6.5-2.3-14-0.3-18.2,5c-4,5.2-5,10.9-2.2,17c3.1,6.6,8.6,9.7,15.7,9.7c22.3,0.1,44.7,0,67,0c7.8,0,13.6-6,13.6-13.9
	c-0.1-7.5-6.2-13.6-13.7-13.6c-1,0-2,0-3,0c-3.4-17.3-11-25.5-25.1-27.2c-5.6-0.7-10.8,0.5-15.7,3.2C221.6,60,217.3,67.5,215.6,76.8
	z"/>
<path class="st0" d="M-81.9,85.5c1.4-4.9,3.3-9.4,7-13c5.7-5.6,12.3-7.6,22.1-6.5c1.9-3.3,3.6-6.8,5.8-9.8
	c5.5-7.4,12.9-11.8,21.9-13.5c0.5-0.1,0.9-0.3,1.4-0.5c3.4,0,6.8,0,10.2,0c1.3,0.4,2.6,0.7,3.8,1.1c9.4,2.6,16.6,8,21.9,16.6
	c-2.1,0.4-3.9,1-5.7,1.1c-0.8,0-1.8-0.7-2.3-1.4c-11.2-13.3-30-14.7-42.8-3.1c-4.4,4-7.1,9-8.5,14.8c-0.3,1.1-0.5,2.1-0.8,3.5
	c-6.9-3.3-13.6-4-20.1,0.6c-3.8,2.7-6.3,6.4-7.1,11.1c-1.1,6.5,0.9,12.1,5.9,16.5c5,4.4,11.2,4.4,17.5,4.2c-0.3,2.3-0.5,4.2-0.7,6.2
	c-13.3,2.4-25.5-5.3-28.8-18.1c-0.1-0.5-0.4-0.9-0.5-1.4C-81.9,91-81.9,88.3-81.9,85.5z"/>
<path class="st0" d="M-17.9,89.7c2.1-5.4,5.4-10.4,10.2-14.4C10.9,59.7,40,68.7,46.4,92c0.6,2.1,1.4,3.1,3.6,3.7
	c9.6,2.5,14.7,10.3,14.4,21.7c-0.2,7.6-6.8,15.3-14.7,17.2c-1.1,0.3-2.3,0.3-3.5,0.3c-23.4,0-46.7,0-70.1,0
	c-11.2,0-20.9-9-21.9-20.1c-1.1-12,6.6-22.7,18-24.7C-24.7,89.6-21.4,89.8-17.9,89.7z M-13.6,98.6c-1.6-0.6-2.8-1.1-4.1-1.6
	c-6.5-2.3-14-0.3-18.2,5c-4,5.2-5,10.9-2.2,17c3.1,6.6,8.6,9.7,15.7,9.7c22.3,0.1,44.7,0,67,0c7.8,0,13.6-6,13.6-13.9
	c-0.1-7.5-6.2-13.6-13.7-13.6c-1,0-2,0-3,0c-3.4-17.3-11-25.5-25.1-27.2C11,73.4,5.8,74.6,0.9,77.3C-7.6,81.8-11.9,89.3-13.6,98.6z"
	/>
<path class="st0" d="M-76.6,226.7c1.4-4.9,3.3-9.4,7-13c5.7-5.6,12.3-7.6,22.1-6.5c1.9-3.3,3.6-6.8,5.8-9.8
	c5.5-7.4,12.9-11.8,21.9-13.5c0.5-0.1,0.9-0.3,1.4-0.5c3.4,0,6.8,0,10.2,0c1.3,0.4,2.6,0.7,3.8,1.1c9.4,2.6,16.6,8,21.9,16.6
	c-2.1,0.4-3.9,1-5.7,1.1c-0.8,0-1.8-0.7-2.3-1.4c-11.2-13.3-30-14.7-42.8-3.1c-4.4,4-7.1,9-8.5,14.8c-0.3,1.1-0.5,2.1-0.8,3.5
	c-6.9-3.3-13.6-4-20.1,0.6c-3.8,2.7-6.3,6.4-7.1,11.1C-71,234.1-69,239.6-64,244c5,4.4,11.2,4.4,17.5,4.2c-0.3,2.3-0.5,4.2-0.7,6.2
	c-13.3,2.4-25.5-5.3-28.8-18.1c-0.1-0.5-0.4-0.9-0.5-1.4C-76.6,232.2-76.6,229.5-76.6,226.7z"/>
<path class="st0" d="M-12.6,230.8c2.1-5.4,5.4-10.4,10.2-14.4c18.6-15.5,47.7-6.6,54.2,16.8c0.6,2.1,1.4,3.1,3.6,3.7
	c9.6,2.5,14.7,10.3,14.4,21.7c-0.2,7.6-6.8,15.3-14.7,17.2c-1.1,0.3-2.3,0.3-3.5,0.3c-23.4,0-46.7,0-70.1,0
	c-11.2,0-20.9-9-21.9-20.1c-1.1-12,6.6-22.7,18-24.7C-19.4,230.8-16.1,231-12.6,230.8z M-8.2,239.8c-1.6-0.6-2.8-1.1-4.1-1.6
	c-6.5-2.3-14-0.3-18.2,5c-4,5.2-5,10.9-2.2,17c3.1,6.6,8.6,9.7,15.7,9.7c22.3,0.1,44.7,0,67,0c7.8,0,13.6-6,13.6-13.9
	c-0.1-7.5-6.2-13.6-13.7-13.6c-1,0-2,0-3,0c-3.4-17.3-11-25.5-25.1-27.2c-5.6-0.7-10.8,0.5-15.7,3.2C-2.3,223-6.6,230.5-8.2,239.8z"
	/>
<path class="st0" d="M462,150.9c1.4-4.9,3.3-9.4,7-13c5.7-5.6,12.3-7.6,22.1-6.5c1.9-3.3,3.6-6.8,5.8-9.8
	c5.5-7.4,12.9-11.8,21.9-13.5c0.5-0.1,0.9-0.3,1.4-0.5c3.4,0,6.8,0,10.2,0c1.3,0.4,2.6,0.7,3.8,1.1c9.4,2.6,16.6,8,21.9,16.6
	c-2.1,0.4-3.9,1-5.7,1.1c-0.8,0-1.8-0.7-2.3-1.4c-11.2-13.3-30-14.7-42.8-3.1c-4.4,4-7.1,9-8.5,14.8c-0.3,1.1-0.5,2.1-0.8,3.5
	c-6.9-3.3-13.6-4-20.1,0.6c-3.8,2.7-6.3,6.4-7.1,11.1c-1.1,6.5,0.9,12.1,5.9,16.5c5,4.4,11.2,4.4,17.5,4.2c-0.3,2.3-0.5,4.2-0.7,6.2
	c-13.3,2.4-25.5-5.3-28.8-18.1c-0.1-0.5-0.4-0.9-0.5-1.4C462,156.4,462,153.6,462,150.9z"/>
<path class="st0" d="M526,155c2.1-5.4,5.4-10.4,10.2-14.4c18.6-15.5,47.7-6.6,54.2,16.8c0.6,2.1,1.4,3.1,3.6,3.7
	c9.6,2.5,14.7,10.3,14.4,21.7c-0.2,7.6-6.8,15.3-14.7,17.2c-1.1,0.3-2.3,0.3-3.5,0.3c-23.4,0-46.7,0-70.1,0
	c-11.2,0-20.9-9-21.9-20.1c-1.1-12,6.6-22.7,18-24.7C519.2,155,522.4,155.2,526,155z M530.3,164c-1.6-0.6-2.8-1.1-4.1-1.6
	c-6.5-2.3-14-0.3-18.2,5c-4,5.2-5,10.9-2.2,17c3.1,6.6,8.6,9.7,15.7,9.7c22.3,0.1,44.7,0,67,0c7.8,0,13.6-6,13.6-13.9
	c-0.1-7.5-6.2-13.6-13.7-13.6c-1,0-2,0-3,0c-3.4-17.3-11-25.5-25.1-27.2c-5.6-0.7-10.8,0.5-15.7,3.2
	C536.3,147.2,532,154.7,530.3,164z"/>
<path class="st0" d="M434.9,45.1c1.4-4.9,3.3-9.4,7-13c5.7-5.6,12.3-7.6,22.1-6.5c1.9-3.3,3.6-6.8,5.8-9.8
	c5.5-7.4,12.9-11.8,21.9-13.5c0.5-0.1,0.9-0.3,1.4-0.5c3.4,0,6.8,0,10.2,0c1.3,0.4,2.6,0.7,3.8,1.1c9.4,2.6,16.6,8,21.9,16.6
	c-2.1,0.4-3.9,1-5.7,1.1c-0.8,0-1.8-0.7-2.3-1.4C509.8,5.8,491,4.4,478.2,16c-4.4,4-7.1,9-8.5,14.8c-0.3,1.1-0.5,2.1-0.8,3.5
	c-6.9-3.3-13.6-4-20.1,0.6c-3.8,2.7-6.3,6.4-7.1,11.1c-1.1,6.5,0.9,12.1,5.9,16.5c5,4.4,11.2,4.4,17.5,4.2c-0.3,2.3-0.5,4.2-0.7,6.2
	c-13.3,2.4-25.5-5.3-28.8-18.1c-0.1-0.5-0.4-0.9-0.5-1.4C434.9,50.6,434.9,47.9,434.9,45.1z"/>
<path class="st0" d="M499,49.3c2.1-5.4,5.4-10.4,10.2-14.4c18.6-15.5,47.7-6.6,54.2,16.8c0.6,2.1,1.4,3.1,3.6,3.7
	c9.6,2.5,14.7,10.3,14.4,21.7c-0.2,7.6-6.8,15.3-14.7,17.2c-1.1,0.3-2.3,0.3-3.5,0.3c-23.4,0-46.7,0-70.1,0
	c-11.2,0-20.9-9-21.9-20.1c-1.1-12,6.6-22.7,18-24.7C492.2,49.2,495.4,49.4,499,49.3z M503.3,58.3c-1.6-0.6-2.8-1.1-4.1-1.6
	c-6.5-2.3-14-0.3-18.2,5c-4,5.2-5,10.9-2.2,17c3.1,6.6,8.6,9.7,15.7,9.7c22.3,0.1,44.7,0,67,0c7.8,0,13.6-6,13.6-13.9
	c-0.1-7.5-6.2-13.6-13.7-13.6c-1,0-2,0-3,0c-3.4-17.3-11-25.5-25.1-27.2c-5.6-0.7-10.8,0.5-15.7,3.2C509.3,41.4,505,48.9,503.3,58.3
	z"/>
</svg>
