<?xml version="1.0" encoding="utf-8"?>
<!-- Generator: Adobe Illustrator 22.1.0, SVG Export Plug-In . SVG Version: 6.00 Build 0)  -->
<svg version="1.1" id="Layer_1" xmlns="http://www.w3.org/2000/svg" xmlns:xlink="http://www.w3.org/1999/xlink" x="0px" y="0px"
	 viewBox="0 0 216 216" style="enable-background:new 0 0 216 216;" xml:space="preserve">
<style type="text/css">
	.st0{fill:#FFFFFF;}
	.st1{fill:none;stroke:#66CCCC;stroke-width:6;stroke-miterlimit:10;}
	.st2{fill:none;stroke:#F47621;stroke-width:5;stroke-miterlimit:10;}
</style>
<g>
	<path class="st2" d="M108,72c-19.9,0-36,16.1-36,36c0,19.9,16.1,36,36,36.1c19.9,0,36.1-16.1,36.1-36.1C144,88.1,127.9,72,108,72z
		 M102.5,37.9c0,5,0,10.1,0,15.1c0,0.5,0,0.9,0.1,1.4c0.4,3.2,3.6,5.4,6.7,4.6c2.6-0.6,4.3-2.8,4.3-5.6c0-10.3,0-20.6,0-30.9
		c0-0.3,0-0.6-0.1-0.9c-0.3-2.7-2.6-4.7-5.2-4.8c-3.2-0.1-5.7,2.4-5.7,5.8C102.4,27.7,102.5,32.8,102.5,37.9z M37.9,113.5
		c4.6,0,9.2,0,13.8,0c0.8,0,1.7,0,2.5-0.1c3.3-0.3,5.5-3.5,4.8-6.7c-0.6-2.7-2.8-4.3-5.8-4.3c-10.1,0-20.3,0-30.4,0
		c-0.4,0-0.9,0-1.3,0.1c-2.6,0.3-4.6,2.5-4.7,5.1c-0.2,3.3,2.3,5.8,5.7,5.8C27.7,113.5,32.8,113.5,37.9,113.5z M178,113.5
		c5,0,10.1,0,15.1,0c0.5,0,0.9,0,1.4-0.1c3-0.4,5.2-3.4,4.6-6.4c-0.5-2.8-2.8-4.6-5.9-4.6c-10.2,0-20.3,0-30.5,0
		c-0.4,0-0.8,0-1.2,0.1c-2.2,0.3-4,1.9-4.5,4c-0.9,3.6,1.7,6.9,5.5,6.9C167.7,113.5,172.8,113.5,178,113.5z M102.5,178
		c0,5,0,10,0,15c0,0.5,0,1,0.1,1.5c0.4,2.9,3.4,5,6.3,4.5c2.9-0.5,4.7-2.7,4.7-5.9c0-10.2,0-20.3,0-30.5c0-0.4,0-0.7-0.1-1.1
		c-0.4-3.2-3.3-5.4-6.5-4.8c-2.7,0.5-4.5,2.8-4.5,5.8C102.4,167.8,102.5,172.9,102.5,178z M41.9,47.1c0,2,0.7,3.3,1.9,4.5
		C51,58.8,58.2,66,65.4,73.2c0.2,0.2,0.4,0.4,0.6,0.5c3,2.6,7.7,1.3,8.9-2.5c0.7-2.2,0.1-4.2-1.6-5.8C66,58.2,58.7,50.9,51.5,43.7
		c-0.3-0.3-0.5-0.5-0.8-0.7c-1.8-1.3-3.8-1.5-5.8-0.5C42.9,43.5,42,45.2,41.9,47.1z M174.3,47.3c-0.3-0.9-0.5-1.9-1-2.7
		c-1.8-3.2-6.1-3.7-8.8-0.9c-7.3,7.2-14.5,14.5-21.8,21.8c-0.2,0.2-0.4,0.4-0.6,0.6c-1.5,1.8-1.7,4.4-0.4,6.4c1.3,2,3.7,3.1,6,2.4
		c1-0.3,1.9-0.8,2.6-1.5c7.4-7.3,14.7-14.6,22-22C173.5,50.3,174.1,49,174.3,47.3z M174.1,168.9c0-2-0.7-3.3-1.9-4.5
		c-6.3-6.3-12.6-12.6-18.9-18.9c-1-1-2-2-3-3c-1.8-1.7-4.4-2-6.5-0.9c-3.3,1.8-3.9,6.1-1.2,8.9c4.9,4.9,9.8,9.8,14.7,14.7
		c2.4,2.4,4.9,4.9,7.4,7.3c1.7,1.7,4,2.1,6.1,1.2C172.9,172.7,174,170.9,174.1,168.9z M47.1,174.1c2,0,3.3-0.7,4.4-1.8
		c7.2-7.2,14.5-14.5,21.7-21.7c0.3-0.3,0.5-0.6,0.8-0.9c2.5-3.3,0.5-8.1-3.6-8.7c-1.9-0.3-3.5,0.3-4.9,1.6
		c-7.3,7.3-14.6,14.6-21.9,21.9c-0.2,0.2-0.4,0.4-0.6,0.7c-1.3,1.8-1.6,3.8-0.6,5.8C43.4,173,45.1,174,47.1,174.1z"/>
	<path class="st2" d="M102.5,37.9c0-5.1,0-10.2,0-15.4c0-3.4,2.5-5.9,5.7-5.8c2.7,0.1,4.9,2.1,5.2,4.8c0,0.3,0.1,0.6,0.1,0.9
		c0,10.3,0,20.6,0,30.9c0,2.9-1.7,5-4.3,5.6c-3.1,0.8-6.3-1.4-6.7-4.6c-0.1-0.5-0.1-0.9-0.1-1.4C102.5,48,102.5,42.9,102.5,37.9z"/>
</g>
</svg>
