<?xml version="1.0" encoding="utf-8"?>
<!-- Generator: Adobe Illustrator 22.1.0, SVG Export Plug-In . SVG Version: 6.00 Build 0)  -->
<svg version="1.1" id="Layer_1" xmlns="http://www.w3.org/2000/svg" xmlns:xlink="http://www.w3.org/1999/xlink" x="0px" y="0px"
	 viewBox="0 0 87.9 74.8" style="enable-background:new 0 0 87.9 74.8;" xml:space="preserve">
<style type="text/css">
	.st0{fill:#FFFFFF;}
	.st1{fill:none;stroke:#66CCCC;stroke-width:6;stroke-miterlimit:10;}
	.st2{fill:none;stroke:#F4BF7A;stroke-width:2;stroke-miterlimit:10;}
	.st3{fill:none;stroke:#000000;stroke-width:4;stroke-miterlimit:10;}
	.st4{fill:#CACACA;}
	.st5{fill:#66CCCC;}
</style>
<g>
	<path class="st0" d="M12.5,56.3c5-5,10-10,15.1-15.1c-2.5,0-5,0-7.5,0c2.1-3.4,4.2-6.8,6.4-10.2c-0.1,0-0.1,0-0.2,0c-2,0-4,0-6,0
		c-0.2,0-0.3,0.1-0.4,0.3c-2.9,4.9-5.7,9.8-8.6,14.7c0,0.1-0.1,0.2-0.2,0.3c2.1,0,4.2,0,6.4,0C15.8,49.7,14.2,53,12.5,56.3z
		 M4.4,33.8c-0.5,0-0.9,0-1.3,0c-0.3,0-0.4,0.1-0.5,0.3c-2,5.5-4,11-6,16.5c-0.2,0.5-0.4,1.1-0.6,1.7c0.5,0.2,0.9,0.3,1.4,0.5
		C-0.2,46.5,2.1,40.2,4.4,33.8z M35.9,52.8c2.3-6.3,4.6-12.7,6.9-19c-0.5,0-0.9,0-1.3,0c-0.3,0-0.4,0.1-0.5,0.3
		C38.9,40.1,36.8,46,34.6,52c0,0.1-0.1,0.2-0.1,0.3C35,52.5,35.4,52.7,35.9,52.8z M28.2,52.8c2.3-6.3,4.6-12.7,6.9-19
		c-0.5,0-0.9,0-1.3,0c-0.2,0-0.3,0.1-0.4,0.3c-2.2,6-4.3,11.9-6.5,17.9c0,0.1-0.1,0.2-0.1,0.3C27.3,52.5,27.7,52.7,28.2,52.8z
		 M12.1,33.8c-0.5,0-0.9,0-1.3,0c-0.3,0-0.4,0.1-0.5,0.3C8.2,40.1,6,46,3.8,52c0,0.1-0.1,0.2-0.1,0.3c0.5,0.2,0.9,0.4,1.4,0.5
		C7.5,46.5,9.8,40.2,12.1,33.8z"/>
	<path class="st3" d="M-14.7,22.3c0.1-0.6,0.2-1.3,0.4-1.9c1.3-4.1,5.6-6.4,9.7-5.3c0.1,0,0.2,0.1,0.3,0.1C-4.4,9.6,0.5,5.2,5.8,5.6
		C5.7,0.3,7.6-4.3,11.4-7.9c3.1-2.9,6.8-4.5,11.1-4.7c4.5-0.2,8.5,1.1,12,3.9c3.5,2.8,5.5,6.5,6.3,11c0.1,0,0.2-0.1,0.4-0.1
		c8.2-2.9,17,2.4,18.4,11c1.2,7.5-3.8,14.6-11.4,15.9c-0.8,0.1-1.6,0.2-2.4,0.2c-17.5,0-34.9,0-52.4,0c-1.6,0-3.3-0.2-4.8-0.9
		c-1.9-0.9-3-2.3-3.3-4.4c0-0.1,0-0.1-0.1-0.2C-14.7,23.3-14.7,22.8-14.7,22.3z"/>
	<path class="st4" d="M12.5,56.3c1.6-3.3,3.3-6.6,5-9.9c-2.1,0-4.2,0-6.4,0c0.1-0.1,0.1-0.2,0.2-0.3c2.9-4.9,5.7-9.8,8.6-14.7
		c0.1-0.1,0.2-0.3,0.4-0.3c2,0,4,0,6,0c0,0,0.1,0,0.2,0c-2.1,3.4-4.2,6.7-6.4,10.2c2.6,0,5.1,0,7.5,0C22.6,46.2,17.5,51.3,12.5,56.3
		z"/>
	<path class="st5" d="M4.4,33.8c-2.3,6.4-4.6,12.7-6.9,19c-0.5-0.2-1-0.4-1.4-0.5c0.2-0.6,0.4-1.1,0.6-1.7c2-5.5,4-11,6-16.5
		c0.1-0.3,0.2-0.3,0.5-0.3C3.5,33.8,3.9,33.8,4.4,33.8z"/>
	<path class="st5" d="M35.9,52.8c-0.5-0.2-1-0.4-1.4-0.5c0-0.1,0.1-0.2,0.1-0.3c2.2-5.9,4.3-11.9,6.5-17.8c0.1-0.2,0.2-0.3,0.5-0.3
		c0.4,0,0.8,0,1.3,0C40.5,40.2,38.2,46.5,35.9,52.8z"/>
	<path class="st5" d="M28.2,52.8c-0.5-0.2-0.9-0.4-1.4-0.5c0-0.1,0.1-0.2,0.1-0.3c2.2-6,4.3-11.9,6.5-17.9c0.1-0.2,0.2-0.3,0.4-0.3
		c0.4,0,0.8,0,1.3,0C32.8,40.2,30.5,46.5,28.2,52.8z"/>
	<path class="st5" d="M12.1,33.8c-2.3,6.4-4.6,12.7-6.9,19c-0.5-0.2-0.9-0.3-1.4-0.5c0-0.1,0.1-0.2,0.1-0.3C6,46,8.2,40.1,10.3,34.1
		c0.1-0.3,0.2-0.3,0.5-0.3C11.2,33.8,11.6,33.8,12.1,33.8z"/>
</g>
</svg>
